<svg width="33" height="26" viewBox="0 0 33 26" fill="none" xmlns="http://www.w3.org/2000/svg">
<path d="M0.00172038 6.75647C0.162419 6.37155 0.275013 5.95628 0.493288 5.60864C0.989134 4.81885 1.74622 4.42264 2.69752 4.32035C2.69752 4.03425 2.69408 3.7551 2.69752 3.47681C2.70783 2.85347 3.06186 2.48589 3.68145 2.47982C4.51932 2.47028 5.35721 2.47028 6.19422 2.47982C6.80779 2.48676 7.1584 2.85695 7.17215 3.48462C7.1773 3.74297 7.17303 4.00218 7.17303 4.30388C7.86653 4.23539 8.35118 3.90855 8.65969 3.33117C8.96476 2.75985 9.23375 2.16945 9.52593 1.5912C9.91865 0.815284 10.5348 0.307255 11.3744 0.0974544C11.6219 0.0359012 11.8831 0.00644202 12.1383 0.00644202C15.0378 0.000373393 17.9381 -0.00396218 20.8376 0.00557422C22.0149 0.00904201 22.8914 0.550876 23.4448 1.60161C23.7164 2.11745 23.9751 2.64109 24.2303 3.16559C24.6161 3.95884 25.2478 4.33336 26.1157 4.33076C27.3618 4.32729 28.607 4.32989 29.853 4.33076C31.5537 4.33076 32.505 5.06159 32.9587 6.71139C32.9639 6.7296 32.9854 6.7426 33 6.75821V23.5353C32.9519 23.6992 32.9072 23.8639 32.8539 24.0269C32.4852 25.1513 31.454 25.935 30.2647 25.994C30.1573 25.9992 30.0498 25.9983 29.9424 25.9983C21.9934 25.9983 14.0444 25.9983 6.0954 25.9983C5.96736 25.9983 5.83328 26.0087 5.71125 25.9775C5.46462 25.9134 5.32628 25.7443 5.34347 25.4782C5.36065 25.2137 5.51361 25.0638 5.7697 25.0317C5.89689 25.0161 6.02749 25.0239 6.15553 25.0239C14.0719 25.0239 21.9891 25.0239 29.9055 25.0239C31.2839 25.0239 32.0323 24.2671 32.0323 22.8721C32.0323 17.6809 32.0323 12.4896 32.0323 7.29831C32.0323 6.33254 31.4927 5.59217 30.6179 5.37109C30.4022 5.31648 30.1719 5.31041 29.9476 5.30868C28.68 5.30347 27.4125 5.30174 26.1449 5.30694C24.8594 5.31214 23.9261 4.7469 23.3529 3.58086C23.1097 3.0867 22.8613 2.59427 22.6138 2.10271C22.2374 1.35454 21.6316 0.98002 20.8015 0.979153C17.9227 0.978286 15.0438 0.978286 12.165 0.979153C11.3357 0.979153 10.7264 1.3476 10.3535 2.10098C10.1043 2.60467 9.85763 3.10923 9.61014 3.61292C9.05328 4.74342 8.14236 5.3 6.89802 5.30434C5.60899 5.30867 4.31996 5.30261 3.03094 5.30607C1.72816 5.30954 0.968491 6.07592 0.968491 7.38414C0.968491 12.5641 0.968491 17.745 0.968491 22.925C0.968491 24.248 1.73761 25.0204 3.05242 25.0213C3.29905 25.0213 3.54656 25.0144 3.79319 25.0265C4.06647 25.0395 4.23059 25.193 4.25723 25.4704C4.28301 25.7348 4.10425 25.9888 3.83184 25.981C3.2131 25.9645 2.56861 25.9975 1.98339 25.8336C0.956466 25.5467 0.332573 24.7898 0.0678922 23.7434C0.0498458 23.6723 0.0232025 23.603 0 23.5327C0 17.9401 0 12.3483 0 6.7556L0.00172038 6.75647ZM6.18822 3.47507H3.68489V4.30995H6.18822V3.47507Z" fill="white"/>
<path d="M16.5159 6.52587C21.0645 6.54927 24.727 10.2685 24.703 14.839C24.6789 19.4269 20.9923 23.1123 16.4541 23.0845C11.9279 23.0577 8.27647 19.3367 8.29967 14.7766C8.32287 10.2069 12.0121 6.50246 16.5159 6.52587ZM16.4902 7.50118C12.477 7.51765 9.24324 10.8051 9.26644 14.8433C9.28964 18.879 12.532 22.1231 16.528 22.1092C20.5222 22.0945 23.7525 18.8139 23.7354 14.7887C23.7182 10.7539 20.4689 7.48558 16.4893 7.50118H16.4902Z" fill="white"/>
<path d="M3.8508 9.70152C2.97942 9.70585 2.26788 9.00016 2.26272 8.12628C2.25757 7.255 2.96393 6.53457 3.83188 6.52764C4.69897 6.5207 5.41224 7.23246 5.41568 8.10721C5.41912 8.98803 4.72302 9.69718 3.84992 9.70152H3.8508ZM4.44807 8.12194C4.45065 7.78297 4.17563 7.50382 3.83876 7.50556C3.50533 7.50729 3.22434 7.79424 3.23121 8.12715C3.23809 8.45225 3.50276 8.71666 3.8276 8.72273C4.16962 8.72967 4.44461 8.46265 4.44719 8.12107L4.44807 8.12194Z" fill="white"/>
<path d="M16.4909 3.45166C15.7398 3.45166 14.9879 3.45339 14.2368 3.45166C13.851 3.44992 13.6353 3.27999 13.625 2.98262C13.6146 2.67573 13.8484 2.47892 14.2403 2.47806C15.7536 2.47546 17.2678 2.47459 18.7811 2.47806C19.2314 2.47892 19.4875 2.80144 19.3337 3.15862C19.234 3.38923 19.0423 3.45339 18.8086 3.45252C18.036 3.44906 17.2626 3.45166 16.4901 3.45166H16.4909Z" fill="white"/>
<path d="M29.3924 7.98495C29.2635 7.98495 29.1346 7.99362 29.0074 7.98409C28.7118 7.96155 28.5202 7.7561 28.5279 7.48214C28.5357 7.21772 28.7187 7.02959 29.0057 7.01658C29.2618 7.00445 29.5205 7.00358 29.7766 7.01745C30.0567 7.03219 30.238 7.23246 30.238 7.49687C30.238 7.76129 30.0584 7.95723 29.7774 7.98237C29.6503 7.99364 29.5205 7.98409 29.3924 7.98495Z" fill="white"/>
<path d="M6.18826 3.47424V4.3091H3.68494V3.47424" fill="white"/>
<path d="M3.82844 8.72355C3.50361 8.71748 3.23807 8.45221 3.23206 8.12797C3.22518 7.7942 3.50536 7.50722 3.83965 7.50636C4.17651 7.50462 4.45149 7.78379 4.44891 8.12276" fill="white"/>
<path d="M16.8984 8.81549C18.0456 8.82589 19.3819 9.35299 20.5231 10.3899C20.6941 10.5459 20.8058 10.7202 20.7388 10.9603C20.6365 11.327 20.2223 11.4259 19.9121 11.1432C19.3209 10.6049 18.6549 10.2087 17.8874 9.98326C15.11 9.1666 12.2243 10.9187 11.6228 13.7892C11.0341 16.5972 12.9599 19.3688 15.7812 19.7737C19.5538 20.3155 22.4979 16.6059 21.1487 13.0098C20.9734 12.5425 21.0344 12.2694 21.3386 12.1558C21.6531 12.0388 21.8869 12.1905 22.0501 12.663C22.8502 14.9856 22.4867 17.1156 20.8161 18.905C19.1361 20.7039 17.0212 21.2614 14.6898 20.5028C12.391 19.7546 11.0049 18.0918 10.6311 15.6704C10.0725 12.0553 12.8748 8.81636 16.8992 8.81636L16.8984 8.81549Z" fill="white"/>
</svg>
