<svg width="100" height="100" viewBox="0 0 100 100" fill="none" xmlns="http://www.w3.org/2000/svg">
<circle cx="50" cy="50" r="50" fill="#F4EEFF"/>
<path d="M71.1867 42.0201V57.98C71.1867 60.5933 69.7867 63.0201 67.5233 64.3501L53.6633 72.3534C51.4 73.6601 48.6 73.6601 46.3133 72.3534L32.4533 64.3501C30.19 63.0434 28.79 60.6167 28.79 57.98V42.0201C28.79 39.4067 30.19 36.98 32.4533 35.65L46.3133 27.6467C48.5767 26.34 51.3767 26.34 53.6633 27.6467L67.5233 35.65C69.7867 36.98 71.1867 39.3834 71.1867 42.0201Z" stroke="#3C347E" stroke-width="3" stroke-linecap="round" stroke-linejoin="round"/>
<path d="M50 47.6667C53.0026 47.6667 55.4367 45.2325 55.4367 42.23C55.4367 39.2274 53.0026 36.7934 50 36.7934C46.9974 36.7934 44.5633 39.2274 44.5633 42.23C44.5633 45.2325 46.9974 47.6667 50 47.6667Z" stroke="#3C347E" stroke-width="3" stroke-linecap="round" stroke-linejoin="round"/>
<path d="M59.3333 60.8733C59.3333 56.6733 55.1567 53.2667 50 53.2667C44.8433 53.2667 40.6667 56.6733 40.6667 60.8733" stroke="#3C347E" stroke-width="3" stroke-linecap="round" stroke-linejoin="round"/>
</svg>
