<svg width="40" height="36" viewBox="0 0 40 36" fill="none" xmlns="http://www.w3.org/2000/svg">
<path d="M30.9678 30.657C26.1169 29.216 22.6917 26.6682 19.5343 25.5205C16.3769 26.6682 12.9517 29.216 8.10083 30.657C0.403691 32.9422 -1.51932 22.6615 3.97426 19.0756C8.80984 15.9208 8.23345 15.3928 9.49845 9.98341C9.58007 9.63145 9.66933 9.26164 9.77135 8.86633C9.88101 8.43276 10.0009 7.97369 10.1361 7.48401C10.2151 7.19837 10.2993 6.92292 10.386 6.65513C11.7071 2.59488 15.4919 0.0317113 19.5369 0.171984C23.5818 0.0317113 27.3666 2.59488 28.6877 6.65513C28.7744 6.92037 28.8561 7.19837 28.9377 7.48401C29.0728 7.97369 29.1953 8.43276 29.3024 8.86633C29.4018 9.26164 29.4911 9.634 29.5753 9.98341C30.8403 15.3954 30.2639 15.9208 35.0995 19.0756C40.5905 22.6589 38.6649 32.9396 30.9678 30.657Z" fill="#5A184A"/>
<path d="M39.4122 36.0014H1.40596C1.40596 36.0014 1.91604 33.5836 2.64291 31.1556C3.36978 28.7276 4.87197 27.71 6.81793 27.2127C7.36627 27.0724 8.37113 26.7791 9.53156 26.4348C10.187 26.2384 10.896 26.0242 11.5974 25.8125C14.0458 25.0678 16.4355 24.3256 16.4355 24.3256L20.3887 24.0094L20.4116 24.0068L20.4346 24.0094L24 24.295C24 24.295 26.1449 24.9377 28.4862 25.6314C30.6847 26.2792 33.0591 26.973 34.0002 27.2152C35.9462 27.7151 37.4483 28.7302 38.1752 31.1582C38.9021 33.5836 39.4122 36.0014 39.4122 36.0014Z" fill="#E9356E"/>
<path d="M5.58095 30.8536C5.5376 30.8536 5.49679 30.8408 5.46108 30.8128L4.45367 30.0247C4.36951 29.9584 4.35421 29.836 4.42052 29.7493C4.48683 29.6651 4.60925 29.6498 4.69596 29.7161L5.70337 30.5042C5.78754 30.5705 5.80284 30.6929 5.73653 30.7796C5.69572 30.8281 5.63961 30.8536 5.58095 30.8536Z" fill="#C4205C"/>
<path d="M5.58095 35.1099C5.5376 35.1099 5.49679 35.0972 5.46108 35.0691L4.45367 34.2811C4.36951 34.2147 4.35421 34.0923 4.42052 34.0056C4.48683 33.9215 4.60925 33.9061 4.69596 33.9725L5.70337 34.7605C5.78754 34.8268 5.80284 34.9493 5.73653 35.036C5.69572 35.0844 5.63961 35.1099 5.58095 35.1099Z" fill="#C4205C"/>
<path d="M11.4622 29.2925C11.4265 29.2925 11.3908 29.2823 11.3602 29.2645C11.2684 29.2084 11.2403 29.086 11.2964 28.9941L11.9672 27.9051C12.0233 27.8133 12.1457 27.7853 12.2375 27.8414C12.3293 27.8975 12.3574 28.0199 12.3013 28.1117L11.6305 29.2007C11.5923 29.2594 11.5285 29.2925 11.4622 29.2925Z" fill="#C4205C"/>
<path d="M8.23588 33.5338C8.20018 33.5338 8.16447 33.5236 8.13386 33.5057C8.04205 33.4496 8.014 33.3272 8.0701 33.2354L8.74086 32.1463C8.79697 32.0545 8.91939 32.0265 9.01121 32.0826C9.10302 32.1387 9.13108 32.2611 9.07497 32.3529L8.40421 33.4419C8.36595 33.5006 8.30219 33.5338 8.23588 33.5338Z" fill="#C4205C"/>
<path d="M9.67178 28.1935C9.68453 28.2267 9.68708 28.2624 9.67943 28.3006C9.65903 28.4078 9.55446 28.4741 9.4499 28.4537L8.19509 28.2012C8.08798 28.1808 8.02167 28.0762 8.04207 27.9716C8.06247 27.8645 8.16704 27.7982 8.27161 27.8186L9.52641 28.0711C9.59527 28.0839 9.64883 28.1323 9.67178 28.1935Z" fill="#C4205C"/>
<path d="M13.9922 32.9727C13.9489 32.9727 13.9081 32.96 13.8724 32.9319L12.8649 32.1439C12.7808 32.0775 12.7655 31.9551 12.8318 31.8684C12.8981 31.7842 13.0205 31.7689 13.1072 31.8353L14.1146 32.6233C14.1988 32.6896 14.2141 32.8121 14.1478 32.8988C14.107 32.9472 14.0509 32.9727 13.9922 32.9727Z" fill="#C4205C"/>
<path d="M10.3884 35.0795C10.3629 35.0642 10.34 35.0413 10.3247 35.0132C10.2711 34.9188 10.3017 34.799 10.3961 34.7454L11.5055 34.1078C11.5999 34.0542 11.7198 34.0848 11.7733 34.1792C11.8269 34.2736 11.7963 34.3935 11.7019 34.447L10.5925 35.0846C10.5262 35.1203 10.4496 35.1152 10.3884 35.0795Z" fill="#C4205C"/>
<path d="M27.846 30.8536C27.8026 30.8536 27.7618 30.8408 27.7261 30.8128L26.7187 30.0247C26.6345 29.9584 26.6192 29.836 26.6855 29.7493C26.7518 29.6651 26.8743 29.6498 26.961 29.7161L27.9684 30.5042C28.0526 30.5705 28.0679 30.6929 28.0015 30.7796C27.9607 30.8281 27.9046 30.8536 27.846 30.8536Z" fill="#C4205C"/>
<path d="M27.846 35.1099C27.8026 35.1099 27.7618 35.0972 27.7261 35.0691L26.7187 34.2811C26.6345 34.2147 26.6192 34.0923 26.6855 34.0056C26.7518 33.9215 26.8743 33.9061 26.961 33.9725L27.9684 34.7605C28.0526 34.8268 28.0679 34.9493 28.0015 35.036C27.9607 35.0844 27.9046 35.1099 27.846 35.1099Z" fill="#C4205C"/>
<path d="M33.7298 29.2925C33.6941 29.2925 33.6584 29.2823 33.6278 29.2645C33.536 29.2084 33.5079 29.086 33.564 28.9941L34.2348 27.9051C34.2909 27.8133 34.4133 27.7853 34.5051 27.8414C34.5969 27.8975 34.625 28.0199 34.5689 28.1117L33.8981 29.2007C33.8573 29.2594 33.7936 29.2925 33.7298 29.2925Z" fill="#C4205C"/>
<path d="M30.5035 33.5338C30.4678 33.5338 30.4321 33.5236 30.4015 33.5057C30.3097 33.4496 30.2816 33.3272 30.3378 33.2354L31.0085 32.1463C31.0646 32.0545 31.187 32.0265 31.2789 32.0826C31.3707 32.1387 31.3987 32.2611 31.3426 32.3529L30.6719 33.4419C30.6336 33.5006 30.5698 33.5338 30.5035 33.5338Z" fill="#C4205C"/>
<path d="M37.3692 35.3345C37.3335 35.3345 37.2978 35.3243 37.2672 35.3065C37.1754 35.2504 37.1473 35.128 37.2035 35.0361L37.8742 33.9471C37.9303 33.8553 38.0527 33.8272 38.1446 33.8834C38.2364 33.9395 38.2644 34.0619 38.2083 34.1537L37.5376 35.2427C37.4993 35.3014 37.4355 35.3345 37.3692 35.3345Z" fill="#C4205C"/>
<path d="M31.9368 28.1935C31.9496 28.2267 31.9521 28.2624 31.9445 28.3006C31.9241 28.4078 31.8195 28.4741 31.715 28.4537L30.4602 28.2012C30.353 28.1808 30.2867 28.0762 30.3071 27.9716C30.3275 27.8645 30.4321 27.7982 30.5367 27.8186L31.7915 28.0711C31.8603 28.0839 31.9139 28.1323 31.9368 28.1935Z" fill="#C4205C"/>
<path d="M36.2572 32.1641C36.2139 32.1641 36.1731 32.1514 36.1374 32.1233L35.13 31.3353C35.0458 31.2689 35.0305 31.1465 35.0968 31.0598C35.1631 30.9757 35.2855 30.9603 35.3722 31.0267L36.3797 31.8147C36.4638 31.8811 36.4791 32.0035 36.4128 32.0902C36.3746 32.1386 36.3159 32.1641 36.2572 32.1641Z" fill="#C4205C"/>
<path d="M32.6561 35.0795C32.6306 35.0642 32.6076 35.0413 32.5923 35.0132C32.5387 34.9188 32.5693 34.799 32.6637 34.7454L33.7731 34.1078C33.8675 34.0542 33.9874 34.0848 34.0409 34.1792C34.0945 34.2736 34.0639 34.3935 33.9695 34.447L32.8601 35.0846C32.7938 35.1203 32.7147 35.1152 32.6561 35.0795Z" fill="#C4205C"/>
<path d="M20.3937 31.5928C20.358 31.5928 20.3223 31.5826 20.2917 31.5648C20.1999 31.5087 20.1718 31.3862 20.2279 31.2944L20.8987 30.2054C20.9548 30.1136 21.0772 30.0855 21.169 30.1417C21.2609 30.1978 21.2889 30.3202 21.2328 30.412L20.562 31.501C20.5238 31.5597 20.46 31.5928 20.3937 31.5928Z" fill="#C4205C"/>
<path d="M17.2847 35.0132C17.249 35.0132 17.2133 35.003 17.1827 34.9852C17.0909 34.9291 17.0628 34.8067 17.1189 34.7148L17.7897 33.6258C17.8458 33.534 17.9682 33.506 18.06 33.5621C18.1519 33.6182 18.1799 33.7406 18.1238 33.8324L17.4531 34.9214C17.4148 34.9801 17.351 35.0132 17.2847 35.0132Z" fill="#C4205C"/>
<path d="M17.5296 30.9123C17.5423 30.9454 17.5449 30.9811 17.5372 31.0194C17.5168 31.1265 17.4123 31.1928 17.3077 31.1724L16.0529 30.9199C15.9458 30.8995 15.8795 30.795 15.8999 30.6904C15.9203 30.5833 16.0248 30.517 16.1294 30.5374L17.3842 30.7899C17.4531 30.8026 17.5066 30.8511 17.5296 30.9123Z" fill="#C4205C"/>
<path d="M24.8824 32.0343C24.839 32.0343 24.7982 32.0215 24.7625 31.9934L23.7551 31.2054C23.6709 31.1391 23.6556 31.0166 23.722 30.9299C23.7883 30.8458 23.9107 30.8305 23.9974 30.8968L25.0048 31.6849C25.089 31.7512 25.1043 31.8736 25.038 31.9603C24.9972 32.0088 24.9411 32.0343 24.8824 32.0343Z" fill="#C4205C"/>
<path d="M21.0568 35.1254C21.0313 35.1101 21.0084 35.0872 20.9931 35.0591C20.9395 34.9647 20.9701 34.8449 21.0645 34.7913L22.1739 34.1537C22.2683 34.1001 22.3881 34.1307 22.4417 34.2251C22.4953 34.3195 22.4646 34.4394 22.3703 34.4929L21.2609 35.1305C21.1945 35.1688 21.118 35.1637 21.0568 35.1254Z" fill="#C4205C"/>
<path d="M20.4323 24.0005V24.0057L20.4116 24.0031L20.4323 24.0005Z" fill="#5D46C2"/>
<path d="M20.4119 24.0031L20.3887 24.0057V24.0005L20.4119 24.0031Z" fill="#5D46C2"/>
<path d="M23.9363 25.2602C23.9363 25.2602 22.9518 27.1016 20.2025 27.1016C17.545 27.1016 16.4279 25.1684 16.4279 25.1684L16.5911 23.8447L16.6192 23.6229L16.8742 21.5366L23.4491 21.7203L23.5588 22.5134L23.5945 22.7736L23.9363 25.2602Z" fill="#FF8881"/>
<path d="M26.5147 28.109C24.8799 30.2156 21.3297 29.0807 20.177 27.5402C19.0242 29.0807 15.4765 30.2131 13.8392 28.109C12.263 26.0814 16.5324 24.314 16.5324 24.314C16.9685 26.2778 19.3634 26.9077 20.177 27.0608C20.9905 26.9077 23.3701 26.2803 23.8062 24.314C23.8036 24.314 28.0883 26.0789 26.5147 28.109Z" fill="#F5EFFF"/>
<path d="M23.5537 22.511C22.0643 23.7734 19.6542 24.2529 16.5886 23.8423L16.6166 23.6204L16.8717 21.5342L23.4466 21.7178L23.5537 22.511Z" fill="#19274B"/>
<path d="M14.4029 16.1098C12.9313 18.1629 9.76626 16.7755 9.98049 14.0516C10.1769 11.5803 12.9364 11.973 12.9364 11.973L14.4029 16.1098Z" fill="#F55B5D"/>
<path d="M12.8753 17.1757C12.8753 17.6807 12.4672 18.0888 11.9622 18.0888C11.4572 18.0888 11.0492 17.6807 11.0492 17.1757C11.0492 16.6708 11.4572 16.2627 11.9622 16.2627C12.4672 16.2627 12.8753 16.6708 12.8753 17.1757Z" fill="#FFAC32"/>
<path d="M13.0487 16.1607C12.9594 16.1607 12.8803 16.0995 12.8574 16.0103C12.5717 14.8422 11.3552 13.7481 11.345 13.7379C11.2634 13.6664 11.2557 13.5415 11.3297 13.4599C11.4011 13.3783 11.5261 13.3706 11.6077 13.4446C11.6612 13.493 12.9262 14.628 13.2425 15.9159C13.268 16.0205 13.2042 16.1276 13.0997 16.1531C13.0793 16.1582 13.064 16.1607 13.0487 16.1607Z" fill="#D1373F"/>
<path d="M12.5437 15.0513C12.5233 15.0513 12.5029 15.0488 12.4825 15.0411C11.9444 14.8601 11.4317 14.9697 11.4266 14.9723C11.3221 14.9952 11.2175 14.9289 11.192 14.8244C11.169 14.7198 11.2354 14.6152 11.3399 14.5897C11.3654 14.5846 11.9622 14.4545 12.6075 14.6713C12.7095 14.7045 12.7656 14.8167 12.7324 14.9187C12.7018 14.9978 12.6253 15.0513 12.5437 15.0513Z" fill="#D1373F"/>
<path d="M25.2906 16.1098C26.7622 18.1629 29.9272 16.7755 29.713 14.0516C29.5166 11.5803 26.7571 11.973 26.7571 11.973L25.2906 16.1098Z" fill="#F55B5D"/>
<path d="M28.726 17.1757C28.726 17.6807 28.318 18.0888 27.813 18.0888C27.308 18.0888 26.8999 17.6807 26.8999 17.1757C26.8999 16.6708 27.308 16.2627 27.813 16.2627C28.318 16.2627 28.726 16.6708 28.726 17.1757Z" fill="#FFAC32"/>
<path d="M26.6448 16.1607C26.6295 16.1607 26.6142 16.1581 26.5989 16.1556C26.4944 16.1301 26.4281 16.023 26.4561 15.9184C26.7724 14.6304 28.0374 13.493 28.0909 13.4471C28.1725 13.3756 28.295 13.3833 28.3689 13.4624C28.4403 13.544 28.4327 13.6664 28.3536 13.7403C28.3409 13.7506 27.1269 14.8421 26.8412 16.0128C26.8132 16.102 26.7316 16.1607 26.6448 16.1607Z" fill="#D1373F"/>
<path d="M27.1499 15.0515C27.0682 15.0515 26.9917 15.0004 26.9637 14.9163C26.9305 14.8143 26.9841 14.702 27.0886 14.6689C27.7339 14.4521 28.3307 14.5822 28.3562 14.5873C28.4608 14.6102 28.5296 14.7148 28.5041 14.8219C28.4812 14.9265 28.3766 14.9928 28.2695 14.9698C28.2644 14.9698 27.7518 14.8602 27.2136 15.0387C27.1932 15.0464 27.1703 15.0515 27.1499 15.0515Z" fill="#D1373F"/>
<path d="M12.3523 8.96861C12.3523 8.96861 11.6331 13.4216 13.4949 17.7777C15.1807 21.7258 17.4251 22.9551 19.8148 22.9933C22.531 23.0367 28.2184 21.4656 27.3181 8.5784C26.7086 -0.128699 13.0716 0.1799 12.3523 8.96861Z" fill="#FF8881"/>
<path d="M11.9622 10.9375C11.9622 10.9375 12.105 13.697 13.2501 13.5924C14.3953 13.4879 13.8393 7.27508 13.8393 7.27508C13.8393 7.27508 14.8595 8.77982 16.7213 8.61659C18.5831 8.45337 16.8947 6.03303 16.8947 6.03303C16.8947 6.03303 18.6111 8.42021 20.1847 8.32329C21.7558 8.22637 20.1847 5.28065 20.1847 5.28065C20.1847 5.28065 22.2378 8.61659 23.7145 8.51968C25.1912 8.42276 23.9415 5.64282 23.9415 5.64282C23.9415 5.64282 25.1172 8.7186 26.2394 8.94559C26.2394 8.94559 25.9563 13.4751 27.1575 13.2838C28.3562 13.0926 27.9124 8.02999 27.4202 6.4921C26.928 4.9542 24.2832 1.09543 19.1951 1.58511C14.0994 2.07479 12.054 4.88789 11.9622 10.9375Z" fill="#5A184A"/>
<path d="M14.8875 11.2255C14.8875 11.2255 15.928 9.77687 17.721 9.59069C18.0117 9.56008 18.2693 9.78452 18.2872 10.0753V10.0804C18.305 10.3762 18.0704 10.6262 17.7745 10.6313C17.1012 10.6389 15.9204 10.7358 14.8875 11.2255Z" fill="#5A184A"/>
<path d="M24.9463 11.2255C24.9463 11.2255 23.9057 9.77687 22.1128 9.59069C21.822 9.56008 21.5644 9.78452 21.5466 10.0753V10.0804C21.5287 10.3762 21.7634 10.6262 22.0592 10.6313C22.7325 10.6389 23.9159 10.7358 24.9463 11.2255Z" fill="#5A184A"/>
<path d="M20.1515 20.6824C19.5929 20.6824 19.1492 20.4861 19.1211 20.4733C19.0395 20.435 19.0013 20.3381 19.0395 20.2565C19.0778 20.1749 19.1747 20.1366 19.2563 20.1749C19.2716 20.18 20.2765 20.6212 21.0849 20.0907C21.1615 20.0423 21.2609 20.0627 21.3119 20.1366C21.3604 20.2132 21.34 20.3126 21.266 20.3636C20.8937 20.6059 20.5009 20.6824 20.1515 20.6824Z" fill="#F55B5D"/>
<path d="M20.7305 16.515C20.7254 16.515 20.7228 16.515 20.7177 16.515L19.5216 16.4181C19.4323 16.4105 19.3634 16.3314 19.3711 16.2421C19.3787 16.1529 19.4578 16.0866 19.5471 16.0917L20.5468 16.1733L20.2357 13.1332C20.2255 13.0439 20.2918 12.9623 20.3811 12.9546C20.4703 12.9444 20.5519 13.0108 20.5596 13.1L20.8911 16.3365C20.8962 16.385 20.8784 16.4334 20.8452 16.4666C20.8172 16.4972 20.7738 16.515 20.7305 16.515Z" fill="#F55B5D"/>
<path d="M17.5858 17.8184C19.0574 18.0479 20.5545 18.1474 22.5591 17.7495C22.5591 17.7495 22.3857 19.8919 20.0062 19.8995C17.9837 19.9072 17.5858 17.8184 17.5858 17.8184Z" fill="#F5EFFF"/>
<path d="M17.4685 13.1157C17.4685 13.6819 17.2109 14.1435 16.8921 14.1435C16.5733 14.1435 16.3157 13.6844 16.3157 13.1157C16.3157 12.5495 16.5733 12.0879 16.8921 12.0879C17.2109 12.0904 17.4685 12.5495 17.4685 13.1157Z" fill="#19274B"/>
<path d="M23.0156 14.1435C23.334 14.1435 23.592 13.6834 23.592 13.1157C23.592 12.5481 23.334 12.0879 23.0156 12.0879C22.6973 12.0879 22.4393 12.5481 22.4393 13.1157C22.4393 13.6834 22.6973 14.1435 23.0156 14.1435Z" fill="#19274B"/>
<path d="M15.3644 15.2224C15.3644 15.3193 15.2853 15.3983 15.1884 15.3983C15.0915 15.3983 15.0125 15.3193 15.0125 15.2224C15.0125 15.1254 15.0915 15.0464 15.1884 15.0464C15.2853 15.0464 15.3644 15.1254 15.3644 15.2224Z" fill="#F55B5D"/>
<path d="M16.0479 15.8241C16.1451 15.8241 16.2239 15.7453 16.2239 15.6481C16.2239 15.551 16.1451 15.4722 16.0479 15.4722C15.9508 15.4722 15.872 15.551 15.872 15.6481C15.872 15.7453 15.9508 15.8241 16.0479 15.8241Z" fill="#F55B5D"/>
<path d="M15.3644 16.263C15.3644 16.3599 15.2854 16.4389 15.1885 16.4389C15.0915 16.4389 15.0125 16.3599 15.0125 16.263C15.0125 16.166 15.0915 16.087 15.1885 16.087C15.2854 16.0844 15.3644 16.166 15.3644 16.263Z" fill="#F55B5D"/>
<path d="M16.7187 16.4387C16.7187 16.5356 16.6397 16.6147 16.5428 16.6147C16.4459 16.6147 16.3668 16.5356 16.3668 16.4387C16.3668 16.3418 16.4459 16.2627 16.5428 16.2627C16.6397 16.2627 16.7187 16.3418 16.7187 16.4387Z" fill="#F55B5D"/>
<path d="M17.6215 16.263C17.6215 16.3599 17.5425 16.4389 17.4456 16.4389C17.3486 16.4389 17.2696 16.3599 17.2696 16.263C17.2696 16.166 17.3486 16.087 17.4456 16.087C17.5425 16.0844 17.6215 16.166 17.6215 16.263Z" fill="#F55B5D"/>
<path d="M17.2109 15.3981C17.2109 15.4951 17.1318 15.5741 17.0349 15.5741C16.938 15.5741 16.8589 15.4951 16.8589 15.3981C16.8589 15.3012 16.938 15.2222 17.0349 15.2222C17.1318 15.2222 17.2109 15.3012 17.2109 15.3981Z" fill="#F55B5D"/>
<path d="M24.8876 15.2224C24.8876 15.3193 24.9667 15.3983 25.0636 15.3983C25.1605 15.3983 25.2396 15.3193 25.2396 15.2224C25.2396 15.1255 25.1605 15.0464 25.0636 15.0464C24.9667 15.0464 24.8876 15.1255 24.8876 15.2224Z" fill="#F55B5D"/>
<path d="M24.2041 15.8241C24.3013 15.8241 24.3801 15.7453 24.3801 15.6481C24.3801 15.551 24.3013 15.4722 24.2041 15.4722C24.1069 15.4722 24.0281 15.551 24.0281 15.6481C24.0281 15.7453 24.1069 15.8241 24.2041 15.8241Z" fill="#F55B5D"/>
<path d="M24.8876 16.263C24.8876 16.3599 24.9667 16.4389 25.0636 16.4389C25.1605 16.4389 25.2396 16.3599 25.2396 16.263C25.2396 16.166 25.1605 16.087 25.0636 16.087C24.9667 16.0844 24.8876 16.166 24.8876 16.263Z" fill="#F55B5D"/>
<path d="M23.5334 16.4387C23.5334 16.5356 23.6124 16.6147 23.7094 16.6147C23.8063 16.6147 23.8853 16.5356 23.8853 16.4387C23.8853 16.3418 23.8063 16.2627 23.7094 16.2627C23.6124 16.2627 23.5334 16.3418 23.5334 16.4387Z" fill="#F55B5D"/>
<path d="M22.6305 16.263C22.6305 16.3599 22.7096 16.4389 22.8065 16.4389C22.9034 16.4389 22.9825 16.3599 22.9825 16.263C22.9825 16.166 22.9034 16.087 22.8065 16.087C22.7096 16.0844 22.6305 16.166 22.6305 16.263Z" fill="#F55B5D"/>
<path d="M23.0412 15.3981C23.0412 15.4951 23.1202 15.5741 23.2171 15.5741C23.3141 15.5741 23.3931 15.4951 23.3931 15.3981C23.3931 15.3012 23.3141 15.2222 23.2171 15.2222C23.1202 15.2222 23.0412 15.3012 23.0412 15.3981Z" fill="#F55B5D"/>
<path d="M16.6625 16.4795C15.0736 16.4795 13.778 15.1864 13.778 13.595C13.778 12.0061 15.0711 10.7104 16.6625 10.7104C18.2514 10.7104 19.547 12.0035 19.547 13.595C19.5445 15.1864 18.2514 16.4795 16.6625 16.4795ZM16.6625 10.9731C15.2164 10.9731 14.0407 12.1489 14.0407 13.595C14.0407 15.041 15.2164 16.2168 16.6625 16.2168C18.1086 16.2168 19.2843 15.041 19.2843 13.595C19.2843 12.1489 18.106 10.9731 16.6625 10.9731Z" fill="#F5EFFF"/>
<path d="M23.6047 16.4795C22.0158 16.4795 20.7202 15.1864 20.7202 13.595C20.7202 12.0061 22.0133 10.7104 23.6047 10.7104C25.1936 10.7104 26.4892 12.0035 26.4892 13.595C26.4867 15.1864 25.1936 16.4795 23.6047 16.4795ZM23.6047 10.9731C22.1586 10.9731 20.9829 12.1489 20.9829 13.595C20.9829 15.041 22.1586 16.2168 23.6047 16.2168C25.0508 16.2168 26.2265 15.041 26.2265 13.595C26.2265 12.1489 25.0508 10.9731 23.6047 10.9731Z" fill="#F5EFFF"/>
<path d="M26.1934 12.7915C26.1628 12.7915 26.1296 12.7813 26.1041 12.7584C26.0506 12.7099 26.048 12.6257 26.0965 12.5747C26.1322 12.5365 26.984 11.6158 28.2618 11.8275C28.3332 11.8402 28.3816 11.9065 28.3689 11.9779C28.3561 12.0494 28.2898 12.0978 28.2184 12.0851C27.0809 11.8989 26.2979 12.7431 26.2903 12.7507C26.2648 12.7762 26.2291 12.7915 26.1934 12.7915Z" fill="#F5EFFF"/>
<path d="M14.0917 12.7382C14.0585 12.7382 14.0228 12.7255 13.9973 12.6974C13.982 12.6821 12.9517 11.6517 11.6816 12.0777C11.6127 12.1006 11.5387 12.0649 11.5158 11.996C11.4928 11.9272 11.5285 11.8532 11.5974 11.8303C13.0307 11.3508 14.1376 12.4679 14.1861 12.5163C14.2371 12.5673 14.2345 12.6515 14.1835 12.7025C14.158 12.7255 14.1249 12.7382 14.0917 12.7382Z" fill="#F5EFFF"/>
<path d="M19.4145 13.3322C19.4119 13.3322 19.4094 13.3322 19.4068 13.3322C19.3354 13.3271 19.2793 13.2659 19.2844 13.1919C19.2997 12.9624 19.4961 12.5288 20.1337 12.5288C20.7713 12.5288 20.9677 12.9624 20.983 13.1919C20.9881 13.2633 20.932 13.3271 20.8605 13.3322C20.7891 13.3373 20.7254 13.2812 20.7203 13.2098C20.7177 13.169 20.6693 12.7915 20.1311 12.7915C19.5777 12.7915 19.5445 13.1919 19.5445 13.2098C19.5394 13.2786 19.4833 13.3322 19.4145 13.3322Z" fill="#F5EFFF"/>
</svg>
