<svg width="153" height="198" viewBox="0 0 153 198" fill="none" xmlns="http://www.w3.org/2000/svg">
<path d="M85.8504 167.351L68.8806 120.869C67.8396 118.024 65.8904 116.923 64.5216 118.42L51.4276 132.817C50.0745 134.305 49.815 137.83 50.8516 140.688L67.8823 187.182C68.9188 190.04 70.868 191.14 72.2369 189.644L85.3309 175.247C86.6162 173.728 86.8869 170.209 85.8504 167.351Z" fill="url(#paint0_linear_8932_161890)"/>
<path d="M84.8908 167.291L67.9302 120.857C66.8779 118.007 64.9287 116.906 63.5711 118.408L50.4884 132.809C49.1241 134.293 48.8646 137.818 49.9124 140.681L66.8641 187.14C67.9119 190.003 69.8498 191.098 71.2187 189.602L84.3014 175.2C85.6679 173.673 85.9274 170.149 84.8908 167.291Z" fill="url(#paint1_linear_8932_161890)"/>
<path style="mix-blend-mode:color-dodge" d="M84.895 167.291L67.9344 120.857C67.1587 118.773 65.9157 117.635 64.7743 117.757C65.7844 118.395 66.5488 119.426 66.921 120.655L83.8794 167.132C84.9205 169.977 84.661 173.502 83.3035 175.003L70.2095 189.4C69.8898 189.761 69.4674 189.987 69.015 190.038C69.3812 190.239 69.7958 190.301 70.1964 190.215C70.597 190.13 70.9619 189.901 71.2363 189.564L84.319 175.162C85.6721 173.673 85.9316 170.149 84.895 167.291Z" fill="url(#paint2_radial_8932_161890)"/>
<g style="mix-blend-mode:multiply">
<path d="M66.248 118.254L63.2639 158.528L85.5177 171.064L85.5536 170.963L65.1484 156.501L66.248 118.254Z" fill="#BCBEC0"/>
</g>
<path d="M64.9083 126.498C64.4911 126.103 64.1721 125.594 63.9821 125.02C63.7921 124.447 63.7375 123.828 63.8235 123.224C63.9564 121.895 64.6567 121.212 65.3977 121.702C65.8176 122.097 66.1391 122.606 66.3312 123.181C66.5232 123.755 66.5792 124.375 66.4937 124.981C66.3608 126.311 65.6492 126.989 64.9083 126.498Z" fill="#603913"/>
<path d="M65.0932 125.165C64.9886 125.118 64.8958 125.044 64.8229 124.948C64.7499 124.851 64.6991 124.737 64.6748 124.614L52.2831 61.9094L53.6316 61.5732L65.739 123.128L112.341 87.6649L113.127 88.9495L65.657 125.05C65.5765 125.115 65.4842 125.159 65.3867 125.179C65.2891 125.199 65.1889 125.194 65.0932 125.165Z" fill="#9D9EB3"/>
<path d="M65.0959 125.166C64.9621 125.104 64.8486 124.998 64.7708 124.861C64.6931 124.725 64.6548 124.565 64.6613 124.403L67.647 68.5325L69.028 68.62L66.1686 122.149L96.9715 81.0387L98.0293 82.035L65.8919 124.95C65.796 125.074 65.6677 125.162 65.525 125.201C65.3822 125.239 65.2322 125.227 65.0959 125.166Z" fill="#9D9EB3"/>
<path d="M126.676 77.3145C127.323 75.4904 127.83 73.6083 128.193 71.6884C128.716 69.5614 129.129 67.4028 129.433 65.2231C130.115 58.9323 129.677 52.5529 128.144 46.4521C121.865 27.1583 101.287 22.9247 101.287 22.9247C101.287 22.9247 83.7371 10.2137 67.3844 19.4345C62.5106 22.6913 58.2666 27.0019 54.9007 32.1143C53.7786 33.9288 52.7539 35.8163 51.832 37.7668C50.9181 39.4367 50.1328 41.1904 49.4844 43.0089C47.7341 47.9317 46.8312 53.5967 51.921 59.396C56.852 68.326 66.9946 77.2334 79.9898 83.0087C92.9849 88.784 105.814 90.1001 114.887 87.3794C121.658 87.4211 124.913 82.2752 126.676 77.3145Z" fill="url(#paint3_radial_8932_161890)"/>
<path d="M68.0719 76.3372C71.4908 83.8204 85.3445 90.2697 92.617 87.2455C104.058 54.5153 107.904 25.8644 101.276 22.919C94.6491 19.9737 79.863 43.7625 68.0719 76.3372Z" fill="url(#paint4_radial_8932_161890)"/>
<path d="M110.54 19.9302C106.219 16.8602 101.42 14.7273 96.3934 13.6431C98.2813 16.5768 99.9139 19.7057 101.269 22.987C104.266 21.6419 107.37 20.6184 110.54 19.9302Z" fill="url(#paint5_radial_8932_161890)"/>
<path d="M101.286 22.9236C84.2042 15.3319 62.3329 31.616 51.8683 59.4303C48.9825 67.5467 61.8291 77.0126 68.0684 76.3796C79.8616 43.7621 94.6477 19.9732 101.286 22.9236Z" fill="url(#paint6_radial_8932_161890)"/>
<path d="M101.287 22.9238C107.96 25.8893 104.069 54.5201 92.6277 87.2503C96.0393 92.1431 111.387 95.2365 114.815 87.361C124.272 59.143 118.358 30.5105 101.287 22.9238Z" fill="url(#paint7_radial_8932_161890)"/>
<path d="M67.3845 19.4332C83.7937 10.2375 101.344 22.9485 101.344 22.9485C99.9888 19.6673 98.3562 16.5384 96.4684 13.6047C86.4625 11.489 76.1101 13.5637 67.3845 19.4332Z" fill="url(#paint8_radial_8932_161890)"/>
<path d="M128.147 46.451C125.387 35.4943 119.12 26.0548 110.538 19.9301C107.368 20.6183 104.264 21.6418 101.267 22.9868C101.267 22.9868 121.867 27.1573 128.147 46.451Z" fill="url(#paint9_radial_8932_161890)"/>
<path style="mix-blend-mode:screen" d="M123.116 50.2266C119.077 61.587 103.689 65.5211 88.797 58.9029C73.9051 52.2846 65.1142 37.6633 69.1713 26.2523C73.2285 14.8414 88.5943 10.9704 103.486 17.5887C118.378 24.207 127.174 38.8157 123.116 50.2266Z" fill="url(#paint10_linear_8932_161890)"/>
<path d="M94.6553 179.992C93.439 183.413 91.5318 185.357 89.4028 185.756L85.6974 186.506C83.5186 186.824 85.5565 184.806 83.4368 181.833C79.2426 175.905 77.8642 165.44 80.3461 158.46C81.5758 155.001 78.717 153.702 80.8642 153.326L84.9262 152.675C87.0803 152.39 89.4359 153.671 91.4968 156.589C95.7475 162.542 97.1371 173.012 94.6553 179.992Z" fill="url(#paint11_linear_8932_161890)"/>
<path d="M90.6871 180.67C88.2008 187.663 82.7854 188.516 78.5754 182.596C74.3653 176.676 73.0028 166.204 75.4846 159.223C77.9665 152.243 83.3818 151.39 87.5738 157.287C91.7657 163.185 93.1555 173.727 90.6871 180.67Z" fill="url(#paint12_linear_8932_161890)"/>
<path style="mix-blend-mode:color-dodge" d="M88.1397 157.274C86.1218 154.418 83.8429 153.142 81.6932 153.342C82.7843 153.55 83.8272 154 84.7603 154.666C85.6935 155.332 86.498 156.2 87.1266 157.218C91.3164 163.159 92.706 173.628 90.2241 180.609C88.9316 184.244 86.8462 186.211 84.5454 186.431C87.2308 186.748 89.729 184.759 91.2011 180.619C93.7123 173.666 92.334 163.202 88.1397 157.274Z" fill="url(#paint13_radial_8932_161890)"/>
<path d="M80.165 176.77C80.1364 176.619 80.147 176.461 80.1957 176.316L83.8803 165.953L81.2492 165.704C81.2049 165.712 81.1596 165.706 81.118 165.687C81.0764 165.669 81.0399 165.638 81.0121 165.599C80.9063 165.451 80.8515 165.266 80.8577 165.077L80.7323 163.224C80.7276 163.102 80.7442 162.98 80.7812 162.865C80.8351 162.714 80.871 162.613 81.0538 162.65L84.9913 162.938C85.1349 162.988 85.2597 163.09 85.3461 163.228L86.4229 164.759C86.5084 164.879 86.5612 165.024 86.5749 165.177C86.6022 165.333 86.59 165.495 86.5397 165.644L81.9036 178.683C81.8919 178.738 81.8659 178.787 81.8291 178.825C81.7922 178.864 81.7461 178.889 81.6965 178.898C81.6479 178.907 81.5979 178.901 81.5521 178.881C81.5062 178.861 81.4663 178.827 81.4368 178.782L80.3124 177.201C80.2324 177.073 80.1817 176.925 80.165 176.77Z" fill="white"/>
<defs>
<linearGradient id="paint0_linear_8932_161890" x1="57.3728" y1="152.941" x2="131.738" y2="158.768" gradientUnits="userSpaceOnUse">
<stop offset="0.04" stop-color="#FFA98C"/>
<stop offset="0.32" stop-color="#FFB892"/>
<stop offset="0.86" stop-color="#FEE1A3"/>
<stop offset="1" stop-color="#FEECA8"/>
</linearGradient>
<linearGradient id="paint1_linear_8932_161890" x1="2.86198" y1="142.471" x2="135.456" y2="161.351" gradientUnits="userSpaceOnUse">
<stop offset="0.04" stop-color="#FFA98C"/>
<stop offset="0.32" stop-color="#FFB892"/>
<stop offset="0.86" stop-color="#FEE1A3"/>
<stop offset="1" stop-color="#FEECA8"/>
</linearGradient>
<radialGradient id="paint2_radial_8932_161890" cx="0" cy="0" r="1" gradientUnits="userSpaceOnUse" gradientTransform="translate(71.3811 155.73) rotate(23.9613) scale(25.0314 27.0624)">
<stop stop-color="white"/>
<stop offset="0.07" stop-color="#D8D8D8"/>
<stop offset="0.16" stop-color="#A6A6A6"/>
<stop offset="0.26" stop-color="#797979"/>
<stop offset="0.37" stop-color="#545454"/>
<stop offset="0.47" stop-color="#353535"/>
<stop offset="0.59" stop-color="#1E1E1E"/>
<stop offset="0.7" stop-color="#0D0D0D"/>
<stop offset="0.84" stop-color="#030303"/>
<stop offset="1"/>
</radialGradient>
<radialGradient id="paint3_radial_8932_161890" cx="0" cy="0" r="1" gradientUnits="userSpaceOnUse" gradientTransform="translate(91.1713 24.4221) rotate(23.9613) scale(73.8586 79.8515)">
<stop stop-color="#EEEBF2"/>
<stop offset="0.58" stop-color="#D4D1D8"/>
<stop offset="0.94" stop-color="#A5A6B9"/>
<stop offset="1" stop-color="#9D9EB3"/>
</radialGradient>
<radialGradient id="paint4_radial_8932_161890" cx="0" cy="0" r="1" gradientUnits="userSpaceOnUse" gradientTransform="translate(91.1606 24.4164) rotate(23.9613) scale(73.8586 79.8514)">
<stop stop-color="#EEEBF2"/>
<stop offset="0.58" stop-color="#D4D1D8"/>
<stop offset="0.94" stop-color="#A5A6B9"/>
<stop offset="1" stop-color="#9D9EB3"/>
</radialGradient>
<radialGradient id="paint5_radial_8932_161890" cx="0" cy="0" r="1" gradientUnits="userSpaceOnUse" gradientTransform="translate(91.1754 24.4212) rotate(23.9613) scale(73.8465 79.8381)">
<stop stop-color="#EEEBF2"/>
<stop offset="0.58" stop-color="#D4D1D8"/>
<stop offset="0.94" stop-color="#A5A6B9"/>
<stop offset="1" stop-color="#9D9EB3"/>
</radialGradient>
<radialGradient id="paint6_radial_8932_161890" cx="0" cy="0" r="1" gradientUnits="userSpaceOnUse" gradientTransform="translate(95.1204 28.7929) rotate(23.9613) scale(63.0109 68.1235)">
<stop stop-color="#A56EF4"/>
<stop offset="1" stop-color="#655BA6"/>
</radialGradient>
<radialGradient id="paint7_radial_8932_161890" cx="0" cy="0" r="1" gradientUnits="userSpaceOnUse" gradientTransform="translate(95.1211 28.7931) rotate(23.9613) scale(62.9985 68.1102)">
<stop stop-color="#A56EF4"/>
<stop offset="1" stop-color="#655BA6"/>
</radialGradient>
<radialGradient id="paint8_radial_8932_161890" cx="0" cy="0" r="1" gradientUnits="userSpaceOnUse" gradientTransform="translate(95.1213 28.7927) rotate(23.9613) scale(63.0109 68.1235)">
<stop stop-color="#A56EF4"/>
<stop offset="1" stop-color="#6B24D6"/>
</radialGradient>
<radialGradient id="paint9_radial_8932_161890" cx="0" cy="0" r="1" gradientUnits="userSpaceOnUse" gradientTransform="translate(95.1235 28.793) rotate(23.9613) scale(63.0109 68.1235)">
<stop stop-color="#A56EF4"/>
<stop offset="1" stop-color="#6B24D6"/>
</radialGradient>
<linearGradient id="paint10_linear_8932_161890" x1="90.8639" y1="-7.84193" x2="99.7898" y2="54.1456" gradientUnits="userSpaceOnUse">
<stop stop-color="white"/>
<stop offset="1"/>
</linearGradient>
<linearGradient id="paint11_linear_8932_161890" x1="91.3852" y1="185.365" x2="81.6112" y2="152.823" gradientUnits="userSpaceOnUse">
<stop offset="0.04" stop-color="#6B24D6"/>
<stop offset="0.2" stop-color="#7733DC"/>
<stop offset="0.5" stop-color="#975CED"/>
<stop offset="0.63" stop-color="#A56EF4"/>
<stop offset="0.87" stop-color="#6B24D6"/>
</linearGradient>
<linearGradient id="paint12_linear_8932_161890" x1="53.3308" y1="164.682" x2="114.429" y2="173.372" gradientUnits="userSpaceOnUse">
<stop offset="0.04" stop-color="#6B24D6"/>
<stop offset="0.29" stop-color="#7733DC"/>
<stop offset="0.79" stop-color="#975CED"/>
<stop offset="1" stop-color="#A56EF4"/>
</linearGradient>
<radialGradient id="paint13_radial_8932_161890" cx="0" cy="0" r="1" gradientUnits="userSpaceOnUse" gradientTransform="translate(89.9935 170.961) rotate(23.9613) scale(11.6508 12.5962)">
<stop stop-color="white"/>
<stop offset="0.07" stop-color="#D8D8D8"/>
<stop offset="0.16" stop-color="#A6A6A6"/>
<stop offset="0.26" stop-color="#797979"/>
<stop offset="0.37" stop-color="#545454"/>
<stop offset="0.47" stop-color="#353535"/>
<stop offset="0.59" stop-color="#1E1E1E"/>
<stop offset="0.7" stop-color="#0D0D0D"/>
<stop offset="0.84" stop-color="#030303"/>
<stop offset="1"/>
</radialGradient>
</defs>
</svg>
