<svg width="29" height="28" viewBox="0 0 29 28" fill="none" xmlns="http://www.w3.org/2000/svg">
<g filter="url(#filter0_d_9918_160873)">
<g clip-path="url(#clip0_9918_160873)">
<ellipse cx="14.7188" cy="11" rx="6.5" ry="9" fill="#FAF8FF"/>
<path d="M24.045 9.98538C24.045 14.8685 20.4623 18.9167 15.7855 19.6514V12.8326H18.0595L18.4924 10.0115H15.7855V8.18101C15.7855 7.40887 16.1638 6.65712 17.3754 6.65712H18.6058V4.25509C18.6058 4.25509 17.4887 4.0643 16.4214 4.0643C14.1923 4.0643 12.7361 5.41534 12.7361 7.86057V10.0107H10.2582V12.8318H12.7361V19.6505C8.06003 18.9151 4.47656 14.8677 4.47656 9.98538C4.47656 4.58205 8.85744 0.201172 14.2608 0.201172C19.6641 0.201172 24.045 4.58123 24.045 9.98538Z" fill="#3C347E"/>
</g>
</g>
<defs>
<filter id="filter0_d_9918_160873" x="0.476562" y="0.140625" width="27.5684" height="27.5684" filterUnits="userSpaceOnUse" color-interpolation-filters="sRGB">
<feFlood flood-opacity="0" result="BackgroundImageFix"/>
<feColorMatrix in="SourceAlpha" type="matrix" values="0 0 0 0 0 0 0 0 0 0 0 0 0 0 0 0 0 0 127 0" result="hardAlpha"/>
<feOffset dy="4"/>
<feGaussianBlur stdDeviation="2"/>
<feComposite in2="hardAlpha" operator="out"/>
<feColorMatrix type="matrix" values="0 0 0 0 0 0 0 0 0 0 0 0 0 0 0 0 0 0 0.25 0"/>
<feBlend mode="normal" in2="BackgroundImageFix" result="effect1_dropShadow_9918_160873"/>
<feBlend mode="normal" in="SourceGraphic" in2="effect1_dropShadow_9918_160873" result="shape"/>
</filter>
<clipPath id="clip0_9918_160873">
<rect x="4.47656" y="0.140625" width="19.5684" height="19.5684" fill="white"/>
</clipPath>
</defs>
</svg>
