<svg width="294" height="191" viewBox="0 0 294 191" fill="none" xmlns="http://www.w3.org/2000/svg">
<g opacity="0.5" clip-path="url(#clip0_5612_171561)">
<path d="M146.811 191C227.892 191 293.621 187.163 293.621 182.429C293.621 177.695 227.892 173.857 146.811 173.857C65.7294 173.857 0 177.695 0 182.429C0 187.163 65.7294 191 146.811 191Z" fill="#D1D3E7"/>
<path d="M134.764 179.703C134.139 179.704 133.526 179.532 132.992 179.208C132.458 178.883 132.023 178.418 131.736 177.863C128.707 171.987 124.868 165.089 117.993 157.624C117.597 157.195 117.319 156.671 117.186 156.103C117.053 155.535 117.07 154.942 117.235 154.383C119.787 145.516 123.8 133.394 123.838 133.273C123.966 132.835 124.182 132.427 124.471 132.074C124.76 131.721 125.117 131.429 125.521 131.217C125.926 131.005 126.368 130.877 126.823 130.839C127.278 130.802 127.736 130.857 128.169 131C128.602 131.144 129.002 131.373 129.345 131.674C129.688 131.976 129.967 132.343 130.165 132.754C130.362 133.165 130.475 133.612 130.497 134.068C130.518 134.524 130.448 134.98 130.289 135.408C130.251 135.521 126.791 145.963 124.285 154.451C129.628 160.613 134.162 167.433 137.778 174.744C138.044 175.263 138.172 175.841 138.15 176.424C138.128 177.007 137.957 177.574 137.653 178.072C137.349 178.569 136.922 178.981 136.414 179.266C135.905 179.552 135.332 179.702 134.749 179.703H134.764Z" fill="#645CAA"/>
<path d="M140.421 182.428H114.078L128.041 174.508L139.739 174.962L140.421 182.428Z" fill="#2E285C"/>
<path d="M137.906 150.515C149.896 146.767 157.097 135.671 153.99 125.733C150.883 115.795 138.645 110.777 126.655 114.525C114.665 118.273 107.464 129.368 110.571 139.307C113.678 149.245 125.916 154.263 137.906 150.515Z" fill="#2E285C"/>
<path d="M72.3433 120.157C71.5593 120.154 70.8004 119.88 70.1953 119.382C69.5901 118.883 69.1759 118.191 69.0226 117.422C68.8694 116.653 68.9866 115.855 69.3544 115.163C69.7222 114.47 70.318 113.926 71.0409 113.623C71.6293 113.377 72.1461 112.986 72.5432 112.487C72.9403 111.988 73.2049 111.397 73.3125 110.768C73.3803 110.029 73.6889 109.332 74.1909 108.785C74.6929 108.238 75.3605 107.871 76.0913 107.74C76.9346 107.567 77.7686 107.353 78.59 107.096C83.1937 105.756 88.8953 104.067 106.841 109.11C124.544 99.2136 124.748 80.6474 124.748 79.8448C124.748 78.9451 125.104 78.0818 125.738 77.4435C126.372 76.8051 127.233 76.4435 128.133 76.4375C129.029 76.4375 129.889 76.7915 130.526 77.4225C131.163 78.0536 131.524 78.9105 131.532 79.807C131.532 80.7989 131.426 104.105 108.817 115.773C108.046 116.173 107.151 116.26 106.318 116.016C89.2058 111.079 84.3598 112.487 80.5209 113.615L79.476 113.918C78.9708 115.256 78.1969 116.477 77.202 117.504C76.207 118.532 75.0122 119.344 73.691 119.892C73.2644 120.071 72.8058 120.161 72.3433 120.157Z" fill="#2E285C"/>
<path d="M112.043 95.844C105.6 70.236 88.4342 4.17917 143.444 0.143376C192.797 -3.48354 206.336 62.2326 209.629 84.9481C211.278 96.4421 212.174 108.032 212.31 119.642C212.373 125.516 210.382 131.226 206.683 135.789C202.984 140.351 197.807 143.478 192.047 144.63C165.16 150.096 139.718 150.869 122.576 144.107C120.324 143.198 118.427 141.586 117.167 139.51C115.908 137.434 115.353 135.007 115.587 132.59C116.246 125.261 116.261 112.585 112.043 95.844Z" fill="#645CAA"/>
<path opacity="0.1" d="M209.659 84.9637C206.555 63.5202 194.349 3.94492 151.614 0.158995C149.176 -0.0881354 146.72 0.391892 144.554 1.53859C142.389 2.68529 140.611 4.44734 139.446 6.60264C137.538 10.2977 137.598 14.7727 140.453 19.2022C149.842 33.8386 172.308 84.3201 168.915 111.829C167.401 124.345 159.519 134.34 166.348 148.408C174.982 147.653 183.563 146.388 192.047 144.622C197.807 143.471 202.983 140.344 206.683 135.781C210.382 131.219 212.373 125.509 212.31 119.635C212.183 108.033 211.297 96.4508 209.659 84.9637Z" fill="#2E285C"/>
<path d="M202.268 119.998C202.179 119.998 202.093 119.963 202.029 119.901C201.966 119.839 201.929 119.754 201.927 119.665C201.798 108.069 200.905 96.4945 199.254 85.0162C191.076 28.4847 169.065 -0.0989956 135.575 2.36943C135.53 2.37251 135.485 2.36673 135.443 2.3524C135.4 2.33807 135.361 2.31548 135.327 2.28593C135.293 2.25638 135.266 2.22045 135.246 2.1802C135.226 2.13996 135.214 2.09619 135.211 2.05141C135.207 1.96147 135.238 1.87338 135.297 1.80562C135.356 1.73786 135.44 1.69568 135.529 1.68795C169.413 -0.810757 191.69 27.9774 199.89 84.9178C201.54 96.4268 202.435 108.031 202.571 119.657C202.571 119.748 202.535 119.834 202.471 119.898C202.407 119.962 202.32 119.998 202.23 119.998H202.268Z" fill="#2E285C"/>
<path d="M201.754 152.326C213.744 148.578 220.945 137.483 217.838 127.545C214.731 117.606 202.493 112.588 190.503 116.336C178.513 120.084 171.312 131.18 174.419 141.118C177.525 151.057 189.764 156.075 201.754 152.326Z" fill="#2E285C"/>
<path d="M203.83 179.702C203.205 179.704 202.591 179.533 202.057 179.208C201.522 178.884 201.088 178.418 200.801 177.862C197.772 171.987 193.934 165.089 187.051 157.623C186.658 157.193 186.382 156.669 186.25 156.101C186.117 155.534 186.132 154.942 186.294 154.382C188.853 145.515 192.858 133.393 192.904 133.272C193.044 132.849 193.266 132.457 193.558 132.12C193.849 131.783 194.204 131.506 194.602 131.306C195.001 131.106 195.434 130.987 195.879 130.954C196.324 130.922 196.77 130.977 197.193 131.118C197.616 131.258 198.008 131.48 198.345 131.771C198.682 132.063 198.959 132.418 199.159 132.816C199.359 133.215 199.478 133.648 199.511 134.093C199.543 134.537 199.488 134.984 199.347 135.407C199.31 135.521 195.857 145.962 193.35 154.45C198.694 160.611 203.226 167.43 206.836 174.743C207.102 175.262 207.23 175.841 207.208 176.423C207.186 177.006 207.015 177.573 206.711 178.071C206.407 178.569 205.98 178.98 205.472 179.266C204.963 179.551 204.39 179.702 203.807 179.702H203.83Z" fill="#645CAA"/>
<path d="M196.694 76.1722C195.935 76.1727 195.197 75.9187 194.599 75.451C194 74.9833 193.576 74.3286 193.393 73.5915C193.21 72.8544 193.279 72.0772 193.589 71.3839C193.899 70.6907 194.433 70.1212 195.104 69.7664C195.756 69.4181 210.543 61.3389 214.693 41.9247C204.849 37.8056 187.116 28.4998 183.239 23.8204C182.858 23.368 182.597 22.8261 182.482 22.2455C182.034 19.4495 182.295 16.5858 183.239 13.9164L181.452 10.4637C181.039 9.6604 180.961 8.72569 181.236 7.86517C181.512 7.00465 182.118 6.28882 182.921 5.87513C183.724 5.46145 184.659 5.3838 185.52 5.65928C186.38 5.93476 187.096 6.54079 187.51 7.34406L190.077 12.3112C190.353 12.8311 190.488 13.4141 190.47 14.0025C190.451 14.5909 190.279 15.1642 189.971 15.6655C189.278 17.0494 188.984 18.599 189.123 20.1405C193.492 24.0854 211.081 33.4215 219.736 36.6244C220.469 36.8963 221.086 37.4134 221.482 38.0882C221.878 38.763 222.029 39.554 221.909 40.3271C218.07 65.14 199.087 75.362 198.285 75.786C197.794 76.0426 197.248 76.1752 196.694 76.1722Z" fill="#2E285C"/>
<path d="M185.86 23.3514C185.554 23.35 185.255 23.2664 184.993 23.1094C184.73 22.9525 184.515 22.7279 184.37 22.4593C184.224 22.1907 184.154 21.8878 184.165 21.5825C184.177 21.2772 184.271 20.9807 184.436 20.7239C184.557 20.5422 187.359 16.3096 191.63 15.1662C191.845 15.1085 192.069 15.0938 192.29 15.1229C192.511 15.152 192.724 15.2244 192.917 15.3358C193.11 15.4473 193.279 15.5956 193.415 15.7724C193.551 15.9493 193.65 16.1511 193.708 16.3664C193.766 16.5816 193.78 16.8061 193.751 17.0271C193.722 17.2481 193.65 17.4611 193.538 17.6541C193.427 17.8471 193.279 18.0163 193.102 18.152C192.925 18.2876 192.723 18.3871 192.508 18.4448C189.532 19.2474 187.298 22.5488 187.283 22.5791C187.129 22.8163 186.918 23.0112 186.67 23.1461C186.421 23.281 186.143 23.3516 185.86 23.3514Z" fill="#2E285C"/>
<path d="M209.483 182.428H183.141L197.096 174.508L208.802 174.962L209.483 182.428Z" fill="#2E285C"/>
<path d="M154.323 80.9756C164.287 80.0934 171.721 72.1079 170.927 63.1395C170.133 54.1711 161.411 47.616 151.448 48.4983C141.484 49.3805 134.05 57.366 134.844 66.3344C135.638 75.3027 144.359 81.8578 154.323 80.9756Z" fill="white"/>
<path d="M150.93 75.0639C153.572 74.3112 154.604 69.8017 153.233 64.9916C151.863 60.1814 148.61 56.8923 145.968 57.6449C143.326 58.3976 142.294 62.9072 143.665 67.7173C145.035 72.5274 148.288 75.8166 150.93 75.0639Z" fill="#2E285C"/>
<path d="M132.272 67.8058C143.706 66.3369 166.346 59.8781 170.078 57.2734C167.141 48.6718 153.42 41.3119 141.215 45.4613C130.152 49.1942 132.272 67.8058 132.272 67.8058Z" fill="#2E285C"/>
<path d="M134.492 73.3335C148.689 70.6379 167.142 66.11 172.42 63.21C172.094 72.4628 169.391 81.8443 154.913 85.0169C143.071 87.5989 134.492 73.3335 134.492 73.3335Z" fill="#2E285C"/>
<path d="M122.797 82.2352C127.93 78.8386 128.607 70.8179 124.308 64.3206C120.009 57.8233 112.363 55.3097 107.229 58.7063C102.095 62.1029 101.419 70.1236 105.717 76.6209C110.016 83.1182 117.663 85.6318 122.797 82.2352Z" fill="white"/>
<path d="M115.267 70.6974C116.123 74.7559 115.381 78.1405 113.601 78.2693C111.822 78.398 109.687 75.1951 108.824 71.1366C107.96 67.0781 108.71 63.701 110.482 63.5647C112.254 63.4284 114.404 66.6389 115.267 70.6974Z" fill="#2E285C"/>
<path d="M101.191 69.1463C108.861 70.0473 124.096 69.0403 126.625 67.6319C124.754 60.3402 115.683 52.0112 107.438 53.0712C100.002 54.0253 101.191 69.1463 101.191 69.1463Z" fill="#2E285C"/>
<path d="M102.613 73.9234C112.146 74.355 124.572 74.1127 128.115 72.7725C127.79 80.049 125.882 86.9848 116.144 86.8712C108.194 86.7804 102.613 73.9234 102.613 73.9234Z" fill="#2E285C"/>
<path d="M157.48 40.8803C148.816 40.9276 140.342 38.3397 133.182 33.4598C132.464 32.9166 131.992 32.1105 131.868 31.2187C131.745 30.3269 131.98 29.4226 132.524 28.7047C133.067 27.9868 133.873 27.5141 134.765 27.3905C135.656 27.267 136.561 27.5028 137.279 28.046C145.292 33.2722 155.015 35.2009 164.416 33.4296C164.854 33.3465 165.304 33.3506 165.741 33.4415C166.177 33.5324 166.591 33.7084 166.96 33.9594C167.328 34.2104 167.644 34.5315 167.888 34.9044C168.132 35.2773 168.301 35.6947 168.384 36.1327C168.467 36.5707 168.463 37.0208 168.372 37.4572C168.281 37.8937 168.105 38.3079 167.854 38.6764C167.603 39.0448 167.282 39.3602 166.909 39.6045C166.536 39.8488 166.119 40.0173 165.681 40.1004C162.977 40.6149 160.232 40.876 157.48 40.8803Z" fill="#2E285C"/>
<path d="M96.7457 35.0272C96.202 35.0245 95.6669 34.8917 95.185 34.64C94.7032 34.3882 94.2885 34.0248 93.9758 33.5801C93.663 33.1355 93.4612 32.6224 93.3872 32.0838C93.3132 31.5452 93.3691 30.9967 93.5504 30.4841C95.3449 25.4716 98.3358 22.2232 102.425 20.8149C109.83 18.2632 117.811 23.2227 118.151 23.4347C118.895 23.9234 119.418 24.6843 119.607 25.554C119.796 26.4236 119.636 27.3327 119.162 28.086C118.688 28.8393 117.938 29.3769 117.072 29.5831C116.207 29.7894 115.295 29.648 114.532 29.1893C113.018 28.2277 108.194 26.0016 104.613 27.2434C102.553 27.9627 101.024 29.7724 99.941 32.786C99.703 33.4425 99.2687 34.0098 98.697 34.4108C98.1253 34.8118 97.444 35.027 96.7457 35.0272Z" fill="#2E285C"/>
<path d="M123.514 92.3309C123.419 92.3307 123.325 92.3154 123.234 92.2855C122.977 92.2132 122.759 92.0417 122.629 91.8088C122.498 91.576 122.465 91.3008 122.538 91.0437C122.839 90.2246 123.299 89.4731 123.891 88.8324C124.484 88.1918 125.197 87.6746 125.99 87.3108C129.882 85.3043 135.834 85.7207 143.64 88.545C143.767 88.5906 143.883 88.6608 143.981 88.7515C144.08 88.8422 144.16 88.9517 144.217 89.0735C144.273 89.1953 144.305 89.3271 144.31 89.4613C144.315 89.5954 144.293 89.7292 144.246 89.855C144.201 89.9809 144.132 90.0967 144.042 90.1956C143.952 90.2945 143.843 90.3744 143.722 90.4308C143.601 90.4872 143.469 90.5189 143.336 90.524C143.202 90.5291 143.069 90.5076 142.944 90.4607C133.986 87.2199 129.314 87.9165 127.043 89.0826C125.909 89.5638 125.007 90.4684 124.529 91.6041C124.464 91.8203 124.329 92.0088 124.145 92.1403C123.962 92.2718 123.74 92.3389 123.514 92.3309Z" fill="#2E285C"/>
<path d="M91.4458 88.5977C79.598 89.6504 68.075 93.0342 57.5391 98.5546C63.3845 97.4491 84.3056 123.337 89.6816 143.297C99.6083 139.624 111.178 137.118 123.513 135.157C116.039 114.584 102.372 91.2705 91.4458 88.5977Z" fill="#645CAA"/>
<path opacity="0.6" d="M91.4458 88.5977C79.598 89.6504 68.075 93.0342 57.5391 98.5546C63.3845 97.4491 84.3056 123.337 89.6816 143.297C99.6083 139.624 111.178 137.118 123.513 135.157C116.039 114.584 102.372 91.2705 91.4458 88.5977Z" fill="white"/>
<path d="M91.4466 88.5976C78.5139 87.1362 57.5171 97.9639 57.5171 97.9639C53.7993 100.334 54.8064 104.779 56.8357 106.664C58.7816 103.87 80.4825 96.601 88.6374 95.6242C84.5865 91.8686 88.3573 89.1125 91.4466 88.5976Z" fill="#645CAA"/>
<path opacity="0.2" d="M91.4466 88.5976C78.5139 87.1362 57.5171 97.9639 57.5171 97.9639C53.7993 100.334 54.8064 104.779 56.8357 106.664C58.7816 103.87 80.4825 96.601 88.6374 95.6242C84.5865 91.8686 88.3573 89.1125 91.4466 88.5976Z" fill="white"/>
<path d="M72.3501 120.158C71.7864 120.16 71.2308 120.023 70.7328 119.759C70.2348 119.495 69.8098 119.111 69.4955 118.643C67.0347 114.857 68.5718 109.11 68.9049 107.99C69.1887 107.159 69.7832 106.469 70.5638 106.067C71.3443 105.664 72.2505 105.579 73.0923 105.83C73.9341 106.08 74.6463 106.647 75.0796 107.411C75.5129 108.175 75.6337 109.077 75.4167 109.928C74.864 111.829 74.7504 114.259 75.1896 114.926C75.6811 115.681 75.8528 116.6 75.6668 117.482C75.4808 118.364 74.9524 119.135 74.1977 119.628C73.6476 119.983 73.0048 120.167 72.3501 120.158Z" fill="#2E285C"/>
</g>
<defs>
<clipPath id="clip0_5612_171561">
<rect width="293.621" height="191" fill="white"/>
</clipPath>
</defs>
</svg>
