<svg width="29" height="28" viewBox="0 0 29 28" fill="none" xmlns="http://www.w3.org/2000/svg">
<g filter="url(#filter0_d_9918_160879)">
<g clip-path="url(#clip0_9918_160879)">
<rect width="17" height="16" transform="matrix(1 0 0 -1 5.9375 18)" fill="#FAF8FF"/>
<path d="M14.3682 1.90341C17.0676 1.90341 17.3878 1.9132 18.4536 1.96049C19.5556 2.00941 20.6905 2.25238 21.4934 3.02941C22.3039 3.81378 22.5474 4.90146 22.598 5.9712C22.6468 7.00261 22.657 7.31245 22.657 9.92483C22.657 12.5372 22.6468 12.847 22.598 13.8785C22.5483 14.9392 22.2913 16.0481 21.4934 16.8202C20.6829 17.6046 19.5598 17.8403 18.4536 17.8892C17.3878 17.9365 17.0676 17.9462 14.3682 17.9462C11.6687 17.9462 11.3485 17.9365 10.2827 17.8892C9.19503 17.8411 8.03403 17.5867 7.24289 16.8202C6.43659 16.04 6.18889 14.9417 6.13834 13.8785C6.08947 12.847 6.07936 12.5372 6.07936 9.92483C6.07936 7.31245 6.08947 7.00261 6.13834 5.9712C6.18805 4.9145 6.44754 3.7991 7.24289 3.02941C8.05172 2.24668 9.17987 2.00941 10.2827 1.96049C11.3485 1.9132 11.6687 1.90341 14.3682 1.90341ZM14.3682 0.140625C11.6224 0.140625 11.2778 0.15204 10.1993 0.19933C8.63643 0.268635 7.0845 0.689356 5.95467 1.78274C4.82062 2.8802 4.39009 4.37882 4.31847 5.89048C4.26961 6.93412 4.25781 7.2676 4.25781 9.92483C4.25781 12.5821 4.26961 12.9155 4.31847 13.9592C4.39009 15.47 4.82652 16.976 5.95467 18.0669C7.08787 19.1636 8.63896 19.581 10.1993 19.6503C11.2778 19.6976 11.6224 19.709 14.3682 19.709C17.114 19.709 17.4586 19.6976 18.537 19.6503C20.099 19.581 21.6527 19.1595 22.7817 18.0669C23.9165 16.9686 24.3462 15.4708 24.4178 13.9592C24.4667 12.9155 24.4785 12.5821 24.4785 9.92483C24.4785 7.2676 24.4667 6.93412 24.4178 5.89048C24.3462 4.378 23.9106 2.87531 22.7817 1.78274C21.6501 0.687725 20.0948 0.26782 18.537 0.19933C17.4586 0.15204 17.114 0.140625 14.3682 0.140625Z" fill="#3C347E"/>
<path d="M14.3674 4.89844C11.5003 4.89844 9.17578 7.14799 9.17578 9.92263C9.17578 12.6973 11.5003 14.9468 14.3674 14.9468C17.2346 14.9468 19.5591 12.6973 19.5591 9.92263C19.5591 7.14799 17.2346 4.89844 14.3674 4.89844ZM14.3674 13.184C12.5063 13.184 10.9973 11.7237 10.9973 9.92263C10.9973 8.12152 12.5063 6.66123 14.3674 6.66123C16.2286 6.66123 17.7376 8.12152 17.7376 9.92263C17.7376 11.7237 16.2286 13.184 14.3674 13.184Z" fill="#3C347E"/>
<path d="M19.766 5.8736C20.436 5.8736 20.9792 5.34794 20.9792 4.6995C20.9792 4.05106 20.436 3.52539 19.766 3.52539C19.0959 3.52539 18.5527 4.05106 18.5527 4.6995C18.5527 5.34794 19.0959 5.8736 19.766 5.8736Z" fill="#3C347E"/>
</g>
</g>
<defs>
<filter id="filter0_d_9918_160879" x="0.257812" y="0.140625" width="28.2207" height="27.5684" filterUnits="userSpaceOnUse" color-interpolation-filters="sRGB">
<feFlood flood-opacity="0" result="BackgroundImageFix"/>
<feColorMatrix in="SourceAlpha" type="matrix" values="0 0 0 0 0 0 0 0 0 0 0 0 0 0 0 0 0 0 127 0" result="hardAlpha"/>
<feOffset dy="4"/>
<feGaussianBlur stdDeviation="2"/>
<feComposite in2="hardAlpha" operator="out"/>
<feColorMatrix type="matrix" values="0 0 0 0 0 0 0 0 0 0 0 0 0 0 0 0 0 0 0.25 0"/>
<feBlend mode="normal" in2="BackgroundImageFix" result="effect1_dropShadow_9918_160879"/>
<feBlend mode="normal" in="SourceGraphic" in2="effect1_dropShadow_9918_160879" result="shape"/>
</filter>
<clipPath id="clip0_9918_160879">
<rect x="4.25781" y="0.140625" width="20.2207" height="19.5684" fill="white"/>
</clipPath>
</defs>
</svg>
