<svg width="23" height="22" viewBox="0 0 23 22" fill="none" xmlns="http://www.w3.org/2000/svg">
<path d="M11.3268 1.73633C6.17247 1.73633 1.99414 5.91466 1.99414 11.069C1.99414 16.2234 6.17247 20.4017 11.3268 20.4017C16.4812 20.4017 20.6595 16.2234 20.6595 11.069C20.6595 5.91466 16.4812 1.73633 11.3268 1.73633ZM9.04227 14.9372H7.1524V8.85543H9.04227V14.9372ZM8.08567 8.10881C7.48877 8.10881 7.10282 7.68592 7.10282 7.1629C7.10282 6.62919 7.50043 6.21894 8.10997 6.21894C8.71952 6.21894 9.09282 6.62919 9.10449 7.1629C9.10449 7.68592 8.71952 8.10881 8.08567 8.10881ZM15.9446 14.9372H14.0547V11.5668C14.0547 10.7822 13.7806 10.2495 13.0971 10.2495C12.5751 10.2495 12.265 10.6102 12.1279 10.9572C12.0773 11.0807 12.0647 11.2557 12.0647 11.4297V14.9363H10.1739V10.7949C10.1739 10.0356 10.1496 9.40081 10.1243 8.85446H11.7663L11.8528 9.69926H11.8907C12.1396 9.30262 12.7491 8.71738 13.7689 8.71738C15.0123 8.71738 15.9446 9.55052 15.9446 11.3412V14.9372Z" fill="#3C347E"/>
</svg>
