<svg width="24" height="24" viewBox="0 0 24 24" fill="none" xmlns="http://www.w3.org/2000/svg">
<path d="M20.4988 24H13.4996C12.5716 24 11.6815 23.6313 11.0251 22.9751C10.3687 22.3187 10 21.4286 10 20.5004V17.0008H12.3331V20.5004C12.3331 20.8099 12.456 21.1066 12.6749 21.3253C12.8936 21.544 13.1903 21.6671 13.4996 21.6671H20.4988C20.8083 21.6671 21.1049 21.544 21.3237 21.3253C21.5424 21.1066 21.6654 20.8099 21.6654 20.5004V4.16932C21.6654 3.85979 21.5424 3.56314 21.3237 3.34442C21.1049 3.12569 20.8083 3.00266 20.4988 3.00266H13.4996C13.1902 3.00266 12.8936 3.12569 12.6749 3.34442C12.456 3.56314 12.3331 3.85981 12.3331 4.16932V7.66891H10V4.16932C10 3.24113 10.3687 2.35098 11.0251 1.69461C11.6815 1.03844 12.5716 0.669731 13.4996 0.669731H20.4988C21.427 0.669731 22.3171 1.03844 22.9735 1.69461C23.6297 2.35098 23.9984 3.24113 23.9984 4.16932V20.5004C23.9984 21.4286 23.6297 22.3187 22.9735 22.9751C22.3171 23.6313 21.427 24 20.4988 24V24Z" fill="white"/>
<path d="M19.3367 11.1684V13.5013H4.65592L7.32731 16.1785L5.6826 17.8232L1.01655 13.1572H1.01635C0.852509 12.9945 0.740607 12.7867 0.694907 12.5604C0.64921 12.334 0.671863 12.0993 0.759745 11.8856C0.824582 11.7485 0.913437 11.6241 1.02221 11.5183L5.68827 6.85224L7.33298 8.49695L4.65594 11.1683L19.3367 11.1684Z" fill="white"/>
</svg>
