<svg xmlns="http://www.w3.org/2000/svg" width="100" height="100" viewBox="0 0 100 100">
  <g id="Group_5826" data-name="Group 5826" transform="translate(-139 -24)">
    <path id="Path_52" data-name="Path 52" d="M1017.563,829.228V837.4a1.254,1.254,0,1,0,2.508,0v-8.172a1.254,1.254,0,1,0-2.508,0Z" transform="translate(-850.657 -779.047)" fill="#ffd416"/>
    <path id="Path_53" data-name="Path 53" d="M1006.764,842.54h8.147a1.258,1.258,0,0,0,0-2.516h-8.147a1.258,1.258,0,0,0,0,2.516Z" transform="translate(-842.68 -787.015)" fill="#ffd416"/>
    <path id="Path_54" data-name="Path 54" d="M1006.859,819.439c0,.293-.012.587-.034.88-.01.13-.022.26-.037.39-.01.087-.056.291.007-.034-.016.084-.025.171-.039.256a11.11,11.11,0,0,1-.4,1.652c-.083.253-.186.5-.274.749-.06.173.129-.288.013-.031-.023.051-.045.1-.068.153q-.1.227-.217.45a11.2,11.2,0,0,1-.835,1.38c-.056.079-.134.252-.219.3l.1-.124-.1.129c-.034.043-.069.085-.1.127q-.263.317-.548.613t-.591.572q-.138.124-.279.243-.079.066-.159.131l-.1.077q-.109.086.091-.071a1.406,1.406,0,0,1-.332.244c-.112.079-.225.157-.341.231q-.346.226-.708.426-.346.191-.7.356l-.19.086c-.131.06-.025.07.07-.029a1.6,1.6,0,0,1-.468.181,11.058,11.058,0,0,1-1.586.442q-.189.038-.378.069a.916.916,0,0,1-.255.039c.02,0,.311-.036.076-.012-.289.029-.578.056-.868.067a11.951,11.951,0,0,1-1.75-.067c-.29-.031.222.035.034.006l-.212-.033q-.211-.035-.42-.077-.416-.085-.824-.2-.384-.11-.76-.247c-.118-.043-.234-.09-.351-.135-.263-.1.2.094.03.014-.087-.042-.177-.079-.266-.12a11.1,11.1,0,0,1-1.408-.787q-.155-.1-.307-.209c-.079-.056-.282-.154-.332-.244.093.168.149.12.027.019-.053-.044-.107-.086-.159-.13q-.158-.132-.311-.269a11.287,11.287,0,0,1-1.139-1.185l-.13-.16c-.1-.122-.148-.065.019.027-.089-.049-.186-.253-.243-.333q-.237-.338-.45-.693-.2-.338-.38-.69-.085-.167-.164-.337c-.035-.076-.068-.152-.1-.228-.1-.228.095.247,0-.008a12.563,12.563,0,0,1-.5-1.565q-.095-.4-.16-.8c-.012-.071-.021-.142-.033-.213-.03-.189.037.325.006.034-.016-.144-.031-.289-.042-.433a11.342,11.342,0,0,1,0-1.76c.011-.145.027-.289.042-.433.024-.235-.016.057-.012.077a.909.909,0,0,1,.039-.256q.069-.422.17-.838.1-.391.218-.774.058-.18.122-.358a1.56,1.56,0,0,1,.181-.469c-.012.01-.124.281-.029.07.029-.063.057-.127.086-.19.052-.113.106-.226.162-.338q.2-.408.441-.8.193-.318.407-.622a1.423,1.423,0,0,1,.243-.333c-.129.078-.13.164-.045.059.061-.074.121-.149.182-.223a11.194,11.194,0,0,1,1.112-1.153q.153-.137.311-.269l.127-.1.064-.052q.159-.124-.059.045c.048-.085.22-.164.3-.22q.185-.132.375-.256a11.168,11.168,0,0,1,1.449-.8l.152-.068c.256-.117-.2.074-.031.013.118-.041.233-.093.351-.136q.434-.161.88-.285.368-.1.743-.178.21-.043.42-.078l.17-.027c.26-.042-.282.032.052-.005a11.3,11.3,0,0,1,1.707-.063c.291.012.579.039.868.068.125.012.119-.044-.076-.012a.788.788,0,0,1,.213.032q.232.038.463.084a10.957,10.957,0,0,1,1.623.463c.1.036.326.079.389.152-.011-.012-.28-.124-.07-.029l.152.068q.414.19.813.414.324.182.636.385c.116.075.229.153.341.232l.134.1c.029.021.3.227.136.1-.15-.113.141.115.194.159q.158.132.311.269.306.275.591.571t.548.613c.044.053.271.345.159.195-.127-.17.036.05.051.07q.073.1.144.2a11.156,11.156,0,0,1,.848,1.42q.093.186.18.376c.023.05.045.1.068.152.095.211-.016-.059-.029-.07.073.063.116.293.152.39q.087.237.163.477a11.188,11.188,0,0,1,.382,1.614.822.822,0,0,1,.032.213c.032-.2-.024-.2-.012-.077.014.144.031.288.042.433.023.293.033.586.034.88a1.254,1.254,0,1,0,2.508,0,12.465,12.465,0,0,0-2.25-7.147,12.73,12.73,0,0,0-5.981-4.586,12.463,12.463,0,0,0-13.729,3.742,12.709,12.709,0,0,0-2.862,7.111,12.444,12.444,0,0,0,7.2,12.2,12.679,12.679,0,0,0,7.726.882,12.5,12.5,0,0,0,9.716-10.128,13.807,13.807,0,0,0,.179-2.076,1.254,1.254,0,1,0-2.508,0Z" transform="translate(-828.775 -765.172)" fill="#225f2b"/>
    <path id="Path_55" data-name="Path 55" d="M994.1,815.091a20.338,20.338,0,0,1-1.727,1.714q-.215.189-.436.372-.11.091-.222.181c-.079.064-.277.228-.084.069-.318.263-.668.5-1.01.726a19.618,19.618,0,0,1-2.112,1.236,6,6,0,0,1-1.094.51c.009,0,.21-.087.077-.033l-.135.055q-.157.064-.316.125-.3.114-.594.218a19.469,19.469,0,0,1-2.409.67c-.406.086-.814.156-1.224.217-.249.037.187-.021-.063.008-.1.012-.2.024-.3.035q-.351.038-.7.063a19.888,19.888,0,0,1-2.439.025q-.543-.027-1.084-.085l-.258-.029c-.157-.018-.211-.033-.009,0-.2-.034-.4-.058-.594-.091a19.5,19.5,0,0,1-4.131-1.179l-.116-.048c-.131-.052.111.046.108.046a.888.888,0,0,1-.229-.1q-.247-.11-.491-.226-.467-.224-.922-.472A19.676,19.676,0,0,1,969.8,818q-.22-.153-.436-.311l-.2-.147c-.033-.025-.065-.05-.1-.075-.135-.1.189.15.059.046-.267-.215-.534-.429-.792-.654a19.791,19.791,0,0,1-1.5-1.457q-.364-.391-.706-.8-.157-.19-.311-.383c-.029-.037-.187-.255-.079-.1s-.069-.092-.1-.135a19.771,19.771,0,0,1-2.135-3.631q-.052-.114-.1-.229c-.017-.038-.033-.077-.05-.115-.058-.129.047.111.045.108a2.551,2.551,0,0,1-.217-.544q-.187-.49-.348-.99a19.552,19.552,0,0,1-.548-2.09q-.111-.546-.192-1.1c-.006-.043-.012-.085-.018-.128-.021-.144.016.123.016.12,0-.085-.021-.172-.031-.258q-.033-.281-.057-.562a20.125,20.125,0,0,1-.066-2.244q.014-.548.059-1.095.023-.282.054-.563c.009-.086.02-.172.03-.258.026-.219-.036.246.007-.051a19.651,19.651,0,0,1,1.079-4.183c.06-.156.121-.311.184-.467a.6.6,0,0,1,.048-.116s-.1.237-.045.109c.04-.089.078-.179.117-.268q.221-.493.468-.974a19.629,19.629,0,0,1,1.064-1.82q.283-.43.589-.846l.148-.2c.139-.188-.141.177,0-.006.119-.151.239-.3.361-.449a19.8,19.8,0,0,1,1.421-1.539,20.852,20.852,0,0,1,1.575-1.38c.183-.146-.181.135.007,0l.2-.148q.215-.159.434-.312.439-.307.894-.59a19.749,19.749,0,0,1,1.849-1.015q.224-.108.452-.21l.228-.1c.032-.014.165-.077,0,0s.007,0,.043-.017c.323-.131.647-.256.976-.372a19.516,19.516,0,0,1,2.064-.6q.54-.124,1.087-.218.254-.043.508-.08c.043-.006.086-.011.128-.018,0,0-.264.033-.12.017l.3-.036a19.747,19.747,0,0,1,2.234-.12q.673,0,1.346.049.306.022.612.053l.3.034.151.018c.151.018.068-.006-.031,0a6.143,6.143,0,0,1,1.292.227q.611.129,1.214.3.621.173,1.23.387.279.1.555.2l.275.109.137.056c.136.055.065.013-.028-.012a6.587,6.587,0,0,1,1.152.541q.544.277,1.069.588.544.322,1.067.678.241.164.477.335l.234.173c.083.062.3.2.093.069a7.012,7.012,0,0,1,.931.776q.453.4.881.831a1.266,1.266,0,0,0,1.773,0,1.283,1.283,0,0,0,0-1.779,20.83,20.83,0,0,0-27.762-1.608,20.718,20.718,0,0,0-5.606,6.81,21.04,21.04,0,0,0-.432,18.36,20.67,20.67,0,0,0,5.308,7.109,20.845,20.845,0,0,0,27.493-.073,20.158,20.158,0,0,0,1.763-1.745,1.283,1.283,0,0,0,0-1.779,1.268,1.268,0,0,0-1.773,0Z" transform="translate(-812.163 -748.583)" fill="#225f2b"/>
    <path id="Path_56" data-name="Path 56" d="M975.04,811.162c-.116.052-.232.1-.349.155-.07.031-.377.159-.152.067-.253.1-.507.207-.762.3q-.719.275-1.452.51a27.7,27.7,0,0,1-3.062.79q-.385.076-.772.141c-.13.022-.259.042-.389.062l-.167.026s-.333.047-.168.025-.077.009-.114.014l-.168.02q-.2.024-.395.044-.425.044-.851.076a28.3,28.3,0,0,1-3,.061q-1.241-.041-2.475-.191l-.176-.021c.193.024-.115-.017-.174-.025q-.318-.047-.636-.1-.589-.1-1.174-.227a27.618,27.618,0,0,1-4.621-1.43c-.045-.018-.346-.138-.158-.065s-.12-.052-.156-.068c-.178-.078-.355-.157-.532-.239q-.547-.252-1.082-.528-1.048-.54-2.047-1.168t-1.935-1.332a1.213,1.213,0,0,1-.23-.174c.014.019.232.182.059.045l-.1-.076c-.161-.128-.322-.257-.48-.387q-.444-.367-.872-.751a28.189,28.189,0,0,1-3.238-3.439l-.178-.227c-.138-.176.158.21-.029-.04q-.186-.247-.368-.5-.338-.468-.657-.95-.65-.983-1.217-2.019t-1.048-2.125l-.117-.268c-.126-.291.066.164-.019-.046-.079-.194-.158-.388-.233-.583q-.22-.568-.414-1.145a27.927,27.927,0,0,1-1.143-4.707c-.015-.1-.03-.2-.044-.3-.042-.3.021.18-.007-.051-.027-.215-.052-.43-.075-.646q-.064-.608-.1-1.218-.076-1.257-.041-2.517t.184-2.529c.012-.1.025-.2.037-.3.018-.145-.016.123-.016.12a1.041,1.041,0,0,1,.024-.171q.043-.3.092-.6.1-.613.23-1.221a27.859,27.859,0,0,1,1.4-4.6c.036-.091.074-.181.11-.271.085-.208-.1.219.019-.046.083-.191.167-.382.253-.572q.241-.53.5-1.05.544-1.072,1.178-2.094.62-1,1.322-1.945l.173-.231c.134-.179-.163.206.03-.039q.191-.243.385-.483.364-.446.746-.877a28.137,28.137,0,0,1,3.387-3.232l.225-.18.13-.1c.109-.086-.093.073-.091.07a2.6,2.6,0,0,1,.494-.371q.482-.353.978-.686.978-.656,2.009-1.227t2.116-1.057l.267-.118.114-.049c.2-.089-.049.014-.069.029a2.713,2.713,0,0,1,.58-.235q.546-.214,1.1-.405a27.7,27.7,0,0,1,4.727-1.174l.255-.039c.04-.006.38-.051.174-.025l.176-.022.344-.04q.626-.068,1.256-.108,1.382-.089,2.768-.041.836.028,1.67.107.383.036.766.083c.034,0,.279.034.126.015l.067.009.465.07a1.286,1.286,0,0,0,1.543-.879,1.273,1.273,0,0,0-.876-1.547,29.767,29.767,0,0,0-11.783.473,28.814,28.814,0,0,0-9.129,4.055,29.9,29.9,0,0,0-7.264,6.953,28.98,28.98,0,0,0-4.471,8.912,29.277,29.277,0,0,0-1.181,10.317,29.73,29.73,0,0,0,2.486,10.1,29.245,29.245,0,0,0,13.386,14.118,29.465,29.465,0,0,0,9.913,2.983,28.891,28.891,0,0,0,12.35-1.237,31.336,31.336,0,0,0,3.1-1.222,1.265,1.265,0,0,0,.45-1.721,1.288,1.288,0,0,0-1.716-.451Z" transform="translate(-796.006 -732.473)" fill="#225f2b"/>
    <path id="Path_57" data-name="Path 57" d="M1088.093,757.683h16.034v4.879h-10.081v6.012h9.419v4.84h-9.419v10.579h-5.954Z" transform="translate(-897.35 -732.59)" fill="#225f2b"/>
    <path id="Path_58" data-name="Path 58" d="M1151.694,757.465a2.974,2.974,0,0,1-3.191,2.966,2.988,2.988,0,1,1,.039-5.972A2.971,2.971,0,0,1,1151.694,757.465Zm-6.11,24.4V762.774h5.915v19.089Z" transform="translate(-935.302 -730.459)" fill="#225f2b"/>
    <path id="Path_59" data-name="Path 59" d="M1177.131,784.237c0-2.381-.078-4.411-.155-6.09h5.137l.273,2.616h.117a6.961,6.961,0,0,1,5.877-3.045c3.892,0,6.811,2.576,6.811,8.2v11.32h-5.915V786.657c0-2.459-.856-4.138-3-4.138a3.158,3.158,0,0,0-3,2.225,4.082,4.082,0,0,0-.233,1.483v11.008h-5.916Z" transform="translate(-956.19 -745.833)" fill="#225f2b"/>
    <path id="Path_60" data-name="Path 60" d="M1088.093,852.492h5.954v21.313h10.431v5h-16.385Z" transform="translate(-897.35 -795.256)" fill="#225f2b"/>
    <path id="Path_61" data-name="Path 61" d="M1152.153,852.274a2.974,2.974,0,0,1-3.191,2.967,2.988,2.988,0,1,1,.039-5.972A2.971,2.971,0,0,1,1152.153,852.274Zm-6.11,24.4V857.583h5.916v19.088Z" transform="translate(-935.607 -793.126)" fill="#225f2b"/>
    <path id="Path_62" data-name="Path 62" d="M1181.156,857.674v5.465h4.242v4.372h-4.242v6.909c0,2.3.545,3.357,2.335,3.357a9.588,9.588,0,0,0,1.751-.156l.039,4.489a11.577,11.577,0,0,1-3.853.507,6.142,6.142,0,0,1-4.436-1.639c-1.09-1.132-1.634-2.967-1.634-5.66v-7.807h-2.53v-4.372h2.53V859Z" transform="translate(-953.441 -798.681)" fill="#225f2b"/>
    <path id="Path_63" data-name="Path 63" d="M1089.692,947.338h4.351v1.133h-2.975v2.087h2.774v1.133h-2.774V954.9h-1.375Z" transform="translate(-898.408 -857.947)" fill="#225f2b"/>
    <path id="Path_64" data-name="Path 64" d="M1106.953,947.56a.772.772,0,1,1-.772-.752A.73.73,0,0,1,1106.953,947.56Zm-1.465,6.988v-5.463h1.387v5.463Z" transform="translate(-908.813 -857.596)" fill="#225f2b"/>
    <path id="Path_65" data-name="Path 65" d="M1114.025,954.911c0-.628-.011-1.155-.045-1.626h1.208l.067.819h.034a1.962,1.962,0,0,1,1.733-.943c.951,0,1.935.617,1.935,2.345v3.242h-1.376v-3.085c0-.785-.29-1.38-1.04-1.38a1.155,1.155,0,0,0-1.073.808,1.4,1.4,0,0,0-.056.449v3.208h-1.387Z" transform="translate(-914.486 -861.796)" fill="#225f2b"/>
    <path id="Path_66" data-name="Path 66" d="M1135.36,958.748l-.09-.605h-.033a2.022,2.022,0,0,1-1.611.729,1.619,1.619,0,0,1-1.71-1.627c0-1.379,1.219-2.075,3.232-2.064v-.09c0-.359-.146-.953-1.107-.953a2.877,2.877,0,0,0-1.465.4l-.269-.9a3.915,3.915,0,0,1,1.969-.483,2.04,2.04,0,0,1,2.248,2.3v1.974a8.819,8.819,0,0,0,.078,1.312Zm-.179-2.67c-.973-.023-1.9.19-1.9,1.021a.723.723,0,0,0,.783.785,1.114,1.114,0,0,0,1.074-.751,1,1,0,0,0,.045-.3Z" transform="translate(-926.359 -861.796)" fill="#225f2b"/>
    <path id="Path_67" data-name="Path 67" d="M1149.761,954.911c0-.628-.011-1.155-.044-1.626h1.208l.068.819h.034a1.961,1.961,0,0,1,1.733-.943c.95,0,1.935.617,1.935,2.345v3.242h-1.376v-3.085c0-.785-.29-1.38-1.04-1.38a1.156,1.156,0,0,0-1.073.808,1.4,1.4,0,0,0-.056.449v3.208h-1.387Z" transform="translate(-938.141 -861.796)" fill="#225f2b"/>
    <path id="Path_68" data-name="Path 68" d="M1172.1,958.579a3.973,3.973,0,0,1-1.544.28,2.62,2.62,0,0,1-2.807-2.782,2.821,2.821,0,0,1,3.031-2.917,3.429,3.429,0,0,1,1.331.258l-.246,1.032a2.42,2.42,0,0,0-1.04-.213,1.77,1.77,0,0,0,0,3.534,2.691,2.691,0,0,0,1.085-.213Z" transform="translate(-950.081 -861.796)" fill="#225f2b"/>
    <path id="Path_69" data-name="Path 69" d="M1184.946,947.56a.772.772,0,1,1-.772-.752A.73.73,0,0,1,1184.946,947.56Zm-1.465,6.988v-5.463h1.387v5.463Z" transform="translate(-960.442 -857.596)" fill="#225f2b"/>
    <path id="Path_70" data-name="Path 70" d="M1194.426,958.748l-.09-.605h-.033a2.021,2.021,0,0,1-1.611.729,1.619,1.619,0,0,1-1.711-1.627c0-1.379,1.219-2.075,3.232-2.064v-.09c0-.359-.146-.953-1.107-.953a2.877,2.877,0,0,0-1.465.4l-.268-.9a3.912,3.912,0,0,1,1.968-.483,2.041,2.041,0,0,1,2.248,2.3v1.974a8.842,8.842,0,0,0,.078,1.312Zm-.179-2.67c-.973-.023-1.9.19-1.9,1.021a.723.723,0,0,0,.783.785,1.114,1.114,0,0,0,1.074-.751,1,1,0,0,0,.045-.3Z" transform="translate(-965.459 -861.796)" fill="#225f2b"/>
    <path id="Path_71" data-name="Path 71" d="M1208.915,946.147h1.387v7.964h-1.387Z" transform="translate(-977.33 -857.16)" fill="#225f2b"/>
    <path id="Path_72" data-name="Path 72" d="M1089.692,987.046h1.375v6.406h3.1v1.155h-4.474Z" transform="translate(-898.408 -884.193)" fill="#225f2b"/>
    <path id="Path_73" data-name="Path 73" d="M1107.152,987.269a.772.772,0,1,1-.772-.752A.73.73,0,0,1,1107.152,987.269Zm-1.465,6.989v-5.463h1.387v5.463Z" transform="translate(-908.945 -883.844)" fill="#225f2b"/>
    <path id="Path_74" data-name="Path 74" d="M1114.814,988.635v1.559h1.309v1.032h-1.309v2.411c0,.662.179,1.01.7,1.01a2.028,2.028,0,0,0,.537-.068l.022,1.054a3.007,3.007,0,0,1-.995.135,1.59,1.59,0,0,1-1.186-.449,2.181,2.181,0,0,1-.425-1.526v-2.569h-.783v-1.032h.783V988.96Z" transform="translate(-913.629 -885.243)" fill="#225f2b"/>
    <path id="Path_75" data-name="Path 75" d="M1126.021,996.112a1.481,1.481,0,0,0,1.677,1.414,4.075,4.075,0,0,0,1.51-.247l.2.954a5.12,5.12,0,0,1-1.9.336,2.58,2.58,0,0,1-2.807-2.759,2.7,2.7,0,0,1,2.662-2.939,2.372,2.372,0,0,1,2.349,2.659,3.332,3.332,0,0,1-.045.583Zm2.393-.965a1.173,1.173,0,0,0-1.129-1.335,1.347,1.347,0,0,0-1.264,1.335Z" transform="translate(-921.581 -888.042)" fill="#225f2b"/>
    <path id="Path_76" data-name="Path 76" d="M1142.715,994.754c0-.74-.011-1.267-.045-1.761h1.2l.045,1.043h.045a1.625,1.625,0,0,1,1.487-1.167,1.437,1.437,0,0,1,.324.034v1.3a1.9,1.9,0,0,0-.4-.045,1.214,1.214,0,0,0-1.231,1.043,2.4,2.4,0,0,0-.045.426v2.827h-1.375Z" transform="translate(-933.479 -888.042)" fill="#225f2b"/>
    <path id="Path_77" data-name="Path 77" d="M1156.6,998.457l-.089-.605h-.034a2.023,2.023,0,0,1-1.611.729,1.619,1.619,0,0,1-1.712-1.627c0-1.379,1.219-2.075,3.232-2.064v-.09c0-.359-.145-.954-1.108-.954a2.878,2.878,0,0,0-1.465.4l-.268-.9a3.909,3.909,0,0,1,1.968-.482,2.04,2.04,0,0,1,2.248,2.3v1.974a8.751,8.751,0,0,0,.079,1.312Zm-.179-2.67c-.973-.023-1.9.191-1.9,1.021a.723.723,0,0,0,.782.785,1.115,1.115,0,0,0,1.074-.752,1,1,0,0,0,.044-.3Z" transform="translate(-940.422 -888.042)" fill="#225f2b"/>
    <path id="Path_78" data-name="Path 78" d="M1174.419,998.288a3.97,3.97,0,0,1-1.544.28,2.62,2.62,0,0,1-2.807-2.782,2.82,2.82,0,0,1,3.031-2.917,3.427,3.427,0,0,1,1.331.258l-.246,1.032a2.423,2.423,0,0,0-1.04-.213,1.77,1.77,0,0,0,0,3.534,2.682,2.682,0,0,0,1.085-.213Z" transform="translate(-951.614 -888.042)" fill="#225f2b"/>
    <path id="Path_79" data-name="Path 79" d="M1186.072,993.234l.984,2.928c.111.336.224.752.3,1.065h.034c.089-.314.19-.717.291-1.077l.85-2.916h1.476l-1.365,3.724c-.75,2.042-1.253,2.95-1.9,3.511a2.762,2.762,0,0,1-1.443.707l-.313-1.167a2.359,2.359,0,0,0,.8-.382,2.406,2.406,0,0,0,.749-.863.555.555,0,0,0,.09-.247.589.589,0,0,0-.078-.27l-1.99-5.014Z" transform="translate(-961.211 -888.283)" fill="#225f2b"/>
    <path id="Path_80" data-name="Path 80" d="M1091.067,1026.755v7.561h-1.375v-7.561Z" transform="translate(-898.408 -910.44)" fill="#225f2b"/>
    <path id="Path_81" data-name="Path 81" d="M1098.373,1034.329c0-.628-.011-1.155-.045-1.627h1.207l.067.819h.033a1.963,1.963,0,0,1,1.734-.942c.951,0,1.935.617,1.935,2.345v3.241h-1.375v-3.085c0-.785-.291-1.38-1.041-1.38a1.154,1.154,0,0,0-1.073.808,1.411,1.411,0,0,0-.056.449v3.208h-1.387Z" transform="translate(-904.123 -914.289)" fill="#225f2b"/>
    <path id="Path_82" data-name="Path 82" d="M1118.7,1026.978a.772.772,0,1,1-.772-.752A.73.73,0,0,1,1118.7,1026.978Zm-1.465,6.988V1028.5h1.387v5.463Z" transform="translate(-916.589 -910.09)" fill="#225f2b"/>
    <path id="Path_83" data-name="Path 83" d="M1126.362,1028.344v1.559h1.309v1.032h-1.309v2.412c0,.662.179,1.009.7,1.009a2.022,2.022,0,0,0,.537-.067l.022,1.054a3.006,3.006,0,0,1-1,.135,1.591,1.591,0,0,1-1.186-.449,2.181,2.181,0,0,1-.425-1.526v-2.569h-.783V1029.9h.783v-1.234Z" transform="translate(-921.277 -911.49)" fill="#225f2b"/>
    <path id="Path_84" data-name="Path 84" d="M1138.786,1026.978a.772.772,0,1,1-.771-.752A.73.73,0,0,1,1138.786,1026.978Zm-1.465,6.988V1028.5h1.387v5.463Z" transform="translate(-929.886 -910.09)" fill="#225f2b"/>
    <path id="Path_85" data-name="Path 85" d="M1148.264,1038.165l-.09-.606h-.033a2.02,2.02,0,0,1-1.611.729,1.619,1.619,0,0,1-1.711-1.627c0-1.38,1.219-2.075,3.232-2.064v-.09c0-.359-.145-.954-1.107-.954a2.879,2.879,0,0,0-1.465.4l-.268-.9a3.91,3.91,0,0,1,1.968-.482,2.04,2.04,0,0,1,2.248,2.3v1.974a8.784,8.784,0,0,0,.078,1.312Zm-.179-2.67c-.973-.022-1.9.19-1.9,1.021a.723.723,0,0,0,.783.785,1.116,1.116,0,0,0,1.074-.752,1,1,0,0,0,.044-.3Z" transform="translate(-934.901 -914.289)" fill="#225f2b"/>
    <path id="Path_86" data-name="Path 86" d="M1163.06,1028.344v1.559h1.309v1.032h-1.309v2.412c0,.662.179,1.009.7,1.009a2.02,2.02,0,0,0,.537-.067l.022,1.054a3,3,0,0,1-1,.135,1.589,1.589,0,0,1-1.185-.449,2.179,2.179,0,0,1-.425-1.526v-2.569h-.783V1029.9h.783v-1.234Z" transform="translate(-945.571 -911.49)" fill="#225f2b"/>
    <path id="Path_87" data-name="Path 87" d="M1175.483,1026.978a.772.772,0,1,1-.771-.752A.73.73,0,0,1,1175.483,1026.978Zm-1.464,6.988V1028.5h1.387v5.463Z" transform="translate(-954.177 -910.09)" fill="#225f2b"/>
    <path id="Path_88" data-name="Path 88" d="M1182.31,1032.942l.884,2.771c.156.482.268.92.369,1.368h.034c.1-.449.224-.875.369-1.368l.861-2.771h1.454l-2.081,5.463h-1.353l-2.024-5.463Z" transform="translate(-958.736 -914.529)" fill="#225f2b"/>
    <path id="Path_89" data-name="Path 89" d="M1199.315,1035.821a1.482,1.482,0,0,0,1.678,1.414,4.07,4.07,0,0,0,1.51-.247l.2.953a5.108,5.108,0,0,1-1.9.337,2.58,2.58,0,0,1-2.807-2.76,2.7,2.7,0,0,1,2.662-2.939,2.373,2.373,0,0,1,2.349,2.659,3.411,3.411,0,0,1-.045.583Zm2.394-.965a1.173,1.173,0,0,0-1.13-1.335,1.349,1.349,0,0,0-1.264,1.335Z" transform="translate(-970.102 -914.289)" fill="#225f2b"/>
    <path id="Path_90" data-name="Path 90" d="M992.333,947.32h6.221v1.893h-3.911v2.332H998.3v1.878h-3.654v4.1h-2.311Z" transform="translate(-833.956 -857.935)" fill="#225f2b"/>
    <path id="Path_91" data-name="Path 91" d="M1018.184,947.32v10.208h-2.31V947.32Z" transform="translate(-849.54 -857.935)" fill="#225f2b"/>
    <path id="Path_92" data-name="Path 92" d="M1028.6,947.309a18.767,18.767,0,0,1,3.11-.212,4.87,4.87,0,0,1,3.11.818,2.987,2.987,0,0,1,1.087,2.363,3.267,3.267,0,0,1-.936,2.423,4.71,4.71,0,0,1-3.307,1.075,5.8,5.8,0,0,1-.785-.045v3.65h-2.28Zm2.28,4.634a3.492,3.492,0,0,0,.77.06c1.223,0,1.978-.62,1.978-1.665,0-.939-.649-1.5-1.8-1.5a3.917,3.917,0,0,0-.951.091Z" transform="translate(-857.967 -857.788)" fill="#225f2b"/>
  </g>
</svg>
