<svg width="294" height="255" viewBox="0 0 294 255" fill="none" xmlns="http://www.w3.org/2000/svg">
<g opacity="0.5" clip-path="url(#clip0_4892_112481)">
<path d="M146.811 191C227.892 191 293.621 187.163 293.621 182.429C293.621 177.695 227.892 173.857 146.811 173.857C65.7294 173.857 0 177.695 0 182.429C0 187.163 65.7294 191 146.811 191Z" fill="#D1D3E7"/>
<path d="M134.764 179.703C134.139 179.704 133.526 179.532 132.992 179.208C132.458 178.883 132.023 178.418 131.736 177.863C128.707 171.987 124.868 165.089 117.993 157.624C117.597 157.195 117.319 156.671 117.186 156.103C117.053 155.535 117.07 154.942 117.235 154.383C119.787 145.516 123.8 133.394 123.838 133.273C123.966 132.835 124.182 132.427 124.471 132.074C124.76 131.721 125.117 131.429 125.521 131.217C125.926 131.005 126.368 130.877 126.823 130.839C127.278 130.802 127.736 130.857 128.169 131C128.602 131.144 129.002 131.373 129.345 131.674C129.688 131.976 129.967 132.343 130.165 132.754C130.362 133.165 130.475 133.612 130.497 134.068C130.518 134.524 130.448 134.98 130.289 135.408C130.251 135.521 126.791 145.963 124.285 154.451C129.628 160.613 134.162 167.433 137.778 174.744C138.044 175.263 138.172 175.841 138.15 176.424C138.128 177.007 137.957 177.574 137.653 178.072C137.349 178.569 136.922 178.981 136.414 179.266C135.905 179.552 135.332 179.702 134.749 179.703H134.764Z" fill="#645CAA"/>
<path d="M140.421 182.43H114.078L128.041 174.51L139.739 174.964L140.421 182.43Z" fill="#2E285C"/>
<path d="M137.906 150.516C149.896 146.768 157.097 135.672 153.99 125.734C150.883 115.796 138.645 110.777 126.655 114.526C114.665 118.274 107.464 129.369 110.571 139.308C113.678 149.246 125.916 154.264 137.906 150.516Z" fill="#2E285C"/>
<path d="M72.3423 120.159C71.5583 120.156 70.7995 119.882 70.1943 119.384C69.5892 118.885 69.1749 118.193 69.0216 117.424C68.8684 116.655 68.9856 115.857 69.3534 115.165C69.7212 114.472 70.317 113.928 71.0399 113.625C71.6283 113.379 72.1451 112.988 72.5422 112.489C72.9393 111.99 73.2039 111.399 73.3115 110.77C73.3794 110.031 73.688 109.334 74.1899 108.787C74.6919 108.24 75.3595 107.873 76.0904 107.741C76.9336 107.569 77.7676 107.355 78.5891 107.098C83.1927 105.758 88.8944 104.069 106.84 109.112C124.543 99.2156 124.747 80.6494 124.747 79.8468C124.747 78.947 125.103 78.0838 125.737 77.4454C126.371 76.8071 127.232 76.4455 128.132 76.4395C129.028 76.4394 129.888 76.7934 130.525 77.4245C131.162 78.0555 131.523 78.9125 131.531 79.8089C131.531 80.8008 131.425 104.107 108.816 115.775C108.045 116.175 107.15 116.262 106.317 116.018C89.2048 111.081 84.3588 112.489 80.5199 113.617L79.475 113.92C78.9698 115.258 78.1959 116.479 77.201 117.506C76.2061 118.534 75.0112 119.346 73.6901 119.894C73.2634 120.073 72.8049 120.163 72.3423 120.159Z" fill="#2E285C"/>
<path d="M112.041 95.845C105.598 70.237 88.4323 4.18015 143.442 0.144353C192.795 -3.48257 206.334 62.2336 209.627 84.9491C211.276 96.443 212.172 108.033 212.308 119.643C212.371 125.517 210.381 131.227 206.681 135.79C202.982 140.352 197.805 143.479 192.046 144.63C165.158 150.097 139.716 150.87 122.574 144.108C120.322 143.199 118.425 141.587 117.165 139.511C115.906 137.435 115.351 135.008 115.585 132.591C116.244 125.262 116.259 112.586 112.041 95.845Z" fill="#645CAA"/>
<path opacity="0.1" d="M209.658 84.9637C206.553 63.5202 194.347 3.94492 151.612 0.158995C149.174 -0.0881354 146.718 0.391892 144.552 1.53859C142.387 2.68529 140.609 4.44734 139.444 6.60264C137.536 10.2977 137.596 14.7727 140.451 19.2022C149.84 33.8386 172.306 84.3201 168.913 111.829C167.399 124.345 159.517 134.34 166.347 148.408C174.98 147.653 183.561 146.388 192.045 144.622C197.805 143.471 202.981 140.344 206.681 135.781C210.38 131.219 212.371 125.509 212.308 119.635C212.181 108.033 211.295 96.4508 209.658 84.9637Z" fill="#2E285C"/>
<path d="M202.268 119.999C202.179 119.999 202.093 119.964 202.029 119.902C201.966 119.84 201.929 119.755 201.927 119.666C201.798 108.07 200.905 96.4955 199.254 85.0172C191.076 28.4857 169.065 -0.098019 135.575 2.37041C135.53 2.37349 135.485 2.3677 135.443 2.35338C135.4 2.33905 135.361 2.31646 135.327 2.28691C135.293 2.25736 135.266 2.22142 135.246 2.18118C135.226 2.14093 135.214 2.09717 135.211 2.05239C135.207 1.96245 135.238 1.87436 135.297 1.80659C135.356 1.73883 135.44 1.69666 135.529 1.68893C169.413 -0.80978 191.69 27.9784 199.89 84.9187C201.54 96.4278 202.435 108.032 202.571 119.658C202.571 119.749 202.535 119.835 202.471 119.899C202.407 119.963 202.32 119.999 202.23 119.999H202.268Z" fill="#2E285C"/>
<path d="M201.753 152.326C213.743 148.578 220.944 137.483 217.837 127.545C214.73 117.606 202.492 112.588 190.502 116.336C178.512 120.084 171.311 131.18 174.418 141.118C177.524 151.057 189.763 156.075 201.753 152.326Z" fill="#2E285C"/>
<path d="M203.827 179.704C203.202 179.706 202.588 179.535 202.054 179.21C201.52 178.886 201.085 178.42 200.798 177.864C197.769 171.989 193.931 165.091 187.048 157.625C186.655 157.194 186.379 156.671 186.247 156.103C186.114 155.536 186.129 154.944 186.291 154.384C188.85 145.517 192.855 133.395 192.901 133.274C193.041 132.851 193.263 132.459 193.555 132.122C193.846 131.785 194.201 131.508 194.599 131.308C194.998 131.108 195.431 130.989 195.876 130.956C196.321 130.924 196.767 130.979 197.19 131.12C197.613 131.26 198.005 131.482 198.342 131.773C198.679 132.065 198.956 132.42 199.156 132.818C199.356 133.216 199.475 133.65 199.508 134.095C199.54 134.539 199.485 134.986 199.344 135.409C199.307 135.523 195.854 145.964 193.348 154.452C198.691 160.613 203.223 167.432 206.833 174.745C207.099 175.264 207.227 175.842 207.205 176.425C207.183 177.008 207.012 177.575 206.708 178.073C206.404 178.571 205.977 178.982 205.469 179.268C204.961 179.553 204.387 179.704 203.804 179.704H203.827Z" fill="#645CAA"/>
<path d="M196.694 76.1732C195.935 76.1736 195.197 75.9197 194.599 75.452C194 74.9842 193.576 74.3296 193.393 73.5925C193.21 72.8553 193.279 72.0782 193.589 71.3849C193.899 70.6916 194.433 70.1222 195.104 69.7674C195.756 69.4191 210.543 61.3399 214.693 41.9257C204.849 37.8066 187.116 28.5008 183.239 23.8214C182.858 23.3689 182.597 22.827 182.482 22.2465C182.034 19.4505 182.295 16.5868 183.239 13.9174L181.452 10.4647C181.039 9.66138 180.961 8.72667 181.236 7.86615C181.512 7.00563 182.118 6.2898 182.921 5.87611C183.724 5.46243 184.659 5.38477 185.52 5.66025C186.38 5.93573 187.096 6.54177 187.51 7.34504L190.077 12.3122C190.353 12.832 190.488 13.4151 190.47 14.0034C190.451 14.5918 190.279 15.1651 189.971 15.6665C189.278 17.0504 188.984 18.6 189.123 20.1415C193.492 24.0864 211.081 33.4225 219.736 36.6254C220.469 36.8973 221.086 37.4144 221.482 38.0892C221.878 38.764 222.029 39.5549 221.909 40.328C218.07 65.141 199.087 75.363 198.285 75.787C197.794 76.0436 197.248 76.1762 196.694 76.1732Z" fill="#2E285C"/>
<path d="M185.859 23.3524C185.553 23.3509 185.254 23.2674 184.992 23.1104C184.729 22.9535 184.514 22.7289 184.369 22.4603C184.223 22.1916 184.153 21.8888 184.164 21.5835C184.176 21.2782 184.27 20.9816 184.435 20.7249C184.556 20.5432 187.358 16.3105 191.629 15.1672C191.844 15.1095 192.068 15.0948 192.289 15.1239C192.51 15.153 192.723 15.2253 192.916 15.3368C193.109 15.4482 193.279 15.5966 193.414 15.7734C193.55 15.9502 193.649 16.1521 193.707 16.3673C193.765 16.5826 193.779 16.8071 193.75 17.0281C193.721 17.249 193.649 17.4621 193.537 17.6551C193.426 17.8481 193.278 18.0173 193.101 18.153C192.924 18.2886 192.722 18.3881 192.507 18.4458C189.531 19.2484 187.297 22.5497 187.282 22.58C187.128 22.8173 186.917 23.0122 186.669 23.1471C186.42 23.282 186.142 23.3525 185.859 23.3524Z" fill="#2E285C"/>
<path d="M209.483 182.43H183.141L197.096 174.51L208.802 174.964L209.483 182.43Z" fill="#2E285C"/>
<path d="M154.32 80.9756C164.284 80.0934 171.718 72.1079 170.924 63.1395C170.13 54.1711 161.409 47.616 151.445 48.4983C141.481 49.3805 134.047 57.366 134.841 66.3344C135.635 75.3027 144.356 81.8578 154.32 80.9756Z" fill="white"/>
<path d="M150.929 75.0658C153.571 74.3131 154.603 69.8036 153.232 64.9935C151.862 60.1834 148.609 56.8942 145.967 57.6469C143.325 58.3996 142.293 62.9091 143.664 67.7192C145.034 72.5293 148.287 75.8185 150.929 75.0658Z" fill="#2E285C"/>
<path d="M132.273 67.8068C143.707 66.3379 166.346 59.8791 170.079 57.2744C167.142 48.6728 153.421 41.3129 141.215 45.4623C130.153 49.1952 132.273 67.8068 132.273 67.8068Z" fill="#2E285C"/>
<path d="M134.491 73.3345C148.688 70.6389 167.141 66.111 172.419 63.2109C172.093 72.4637 169.39 81.8453 154.913 85.0179C143.07 87.5999 134.491 73.3345 134.491 73.3345Z" fill="#2E285C"/>
<path d="M122.797 82.2362C127.931 78.8396 128.608 70.8189 124.309 64.3216C120.01 57.8243 112.364 55.3107 107.23 58.7073C102.096 62.1039 101.419 70.1245 105.718 76.6219C110.017 83.1192 117.664 85.6328 122.797 82.2362Z" fill="white"/>
<path d="M115.266 70.6994C116.122 74.7579 115.38 78.1425 113.6 78.2712C111.821 78.3999 109.686 75.1971 108.823 71.1385C107.959 67.08 108.709 63.703 110.481 63.5667C112.253 63.4304 114.403 66.6408 115.266 70.6994Z" fill="#2E285C"/>
<path d="M101.191 69.1473C108.861 70.0483 124.096 69.0412 126.625 67.6329C124.754 60.3412 115.683 52.0121 107.438 53.0722C100.002 54.0263 101.191 69.1473 101.191 69.1473Z" fill="#2E285C"/>
<path d="M102.614 73.9244C112.147 74.3559 124.573 74.1137 128.116 72.7734C127.791 80.05 125.883 86.9858 116.145 86.8722C108.195 86.7814 102.614 73.9244 102.614 73.9244Z" fill="#2E285C"/>
<path d="M157.479 40.8812C148.815 40.9286 140.341 38.3407 133.181 33.4608C132.463 32.9176 131.991 32.1114 131.867 31.2197C131.744 30.3279 131.979 29.4236 132.523 28.7057C133.066 27.9878 133.872 27.515 134.764 27.3915C135.655 27.268 136.56 27.5037 137.278 28.0469C145.291 33.2732 155.014 35.2019 164.415 33.4305C164.853 33.3475 165.303 33.3516 165.74 33.4425C166.176 33.5334 166.59 33.7094 166.959 33.9604C167.327 34.2114 167.643 34.5325 167.887 34.9054C168.131 35.2783 168.3 35.6957 168.383 36.1337C168.466 36.5717 168.462 37.0218 168.371 37.4582C168.28 37.8947 168.104 38.3089 167.853 38.6773C167.602 39.0458 167.281 39.3612 166.908 39.6055C166.535 39.8498 166.118 40.0183 165.68 40.1013C162.976 40.6158 160.231 40.8769 157.479 40.8812Z" fill="#2E285C"/>
<path d="M96.7457 35.0282C96.202 35.0255 95.6669 34.8927 95.185 34.6409C94.7032 34.3892 94.2885 34.0258 93.9758 33.5811C93.663 33.1364 93.4612 32.6234 93.3872 32.0848C93.3132 31.5462 93.3691 30.9977 93.5504 30.4851C95.3449 25.4725 98.3358 22.2242 102.425 20.8158C109.83 18.2641 117.811 23.2237 118.151 23.4357C118.895 23.9244 119.418 24.6853 119.607 25.5549C119.796 26.4246 119.636 27.3337 119.162 28.087C118.688 28.8403 117.938 29.3778 117.072 29.5841C116.207 29.7904 115.295 29.649 114.532 29.1903C113.018 28.2287 108.194 26.0026 104.613 27.2443C102.553 27.9637 101.024 29.7733 99.941 32.7869C99.703 33.4435 99.2687 34.0108 98.697 34.4118C98.1253 34.8128 97.444 35.028 96.7457 35.0282Z" fill="#2E285C"/>
<path d="M123.512 92.3319C123.417 92.3317 123.323 92.3163 123.232 92.2865C122.975 92.2141 122.757 92.0427 122.627 91.8098C122.496 91.5769 122.463 91.3017 122.536 91.0447C122.837 90.2256 123.297 89.474 123.889 88.8334C124.482 88.1927 125.195 87.6756 125.988 87.3118C129.88 85.3052 135.832 85.7217 143.638 88.546C143.765 88.5916 143.881 88.6618 143.98 88.7525C144.078 88.8432 144.158 88.9526 144.215 89.0745C144.271 89.1963 144.303 89.3281 144.308 89.4623C144.313 89.5964 144.291 89.7302 144.244 89.8559C144.199 89.9819 144.13 90.0977 144.04 90.1966C143.95 90.2955 143.841 90.3754 143.72 90.4318C143.599 90.4882 143.467 90.5199 143.334 90.525C143.2 90.5301 143.067 90.5086 142.942 90.4617C133.984 87.2209 129.312 87.9175 127.041 89.0836C125.907 89.5648 125.005 90.4694 124.527 91.605C124.462 91.8212 124.327 92.0098 124.144 92.1413C123.96 92.2728 123.738 92.3398 123.512 92.3319Z" fill="#2E285C"/>
<path d="M91.4458 88.5996C79.598 89.6523 68.075 93.0362 57.5391 98.5566C63.3845 97.4511 84.3056 123.339 89.6816 143.299C99.6083 139.626 111.178 137.12 123.513 135.159C116.039 114.586 102.372 91.2725 91.4458 88.5996Z" fill="#645CAA"/>
<path opacity="0.6" d="M91.4458 88.5996C79.598 89.6523 68.075 93.0362 57.5391 98.5566C63.3845 97.4511 84.3056 123.339 89.6816 143.299C99.6083 139.626 111.178 137.12 123.513 135.159C116.039 114.586 102.372 91.2725 91.4458 88.5996Z" fill="white"/>
<path d="M91.4456 88.5985C78.5129 87.1372 57.5161 97.9649 57.5161 97.9649C53.7984 100.335 54.8054 104.78 56.8347 106.665C58.7806 103.871 80.4816 96.602 88.6365 95.6252C84.5855 91.8696 88.3563 89.1134 91.4456 88.5985Z" fill="#645CAA"/>
<path opacity="0.2" d="M91.4456 88.5985C78.5129 87.1372 57.5161 97.9649 57.5161 97.9649C53.7984 100.335 54.8054 104.78 56.8347 106.665C58.7806 103.871 80.4816 96.602 88.6365 95.6252C84.5855 91.8696 88.3563 89.1134 91.4456 88.5985Z" fill="white"/>
<path d="M72.3491 120.159C71.7854 120.161 71.2299 120.024 70.7319 119.76C70.2339 119.496 69.8088 119.112 69.4946 118.644C67.0337 114.858 68.5708 109.111 68.9039 107.991C69.1877 107.16 69.7822 106.47 70.5628 106.068C71.3434 105.665 72.2495 105.58 73.0913 105.831C73.9332 106.081 74.6453 106.648 75.0786 107.412C75.5119 108.176 75.6328 109.078 75.4157 109.929C74.863 111.83 74.7494 114.26 75.1886 114.927C75.6801 115.682 75.8518 116.601 75.6658 117.483C75.4798 118.365 74.9514 119.136 74.1967 119.629C73.6467 119.984 73.0038 120.168 72.3491 120.159Z" fill="#2E285C"/>
</g>
<path d="M5.17455 249.112C4.42788 249.112 3.75588 248.984 3.15855 248.728C2.56121 248.461 2.09188 248.088 1.75055 247.608C1.40921 247.128 1.23855 246.568 1.23855 245.928H3.19055C3.23321 246.408 3.41988 246.803 3.75055 247.112C4.09188 247.421 4.56655 247.576 5.17455 247.576C5.80388 247.576 6.29455 247.427 6.64655 247.128C6.99855 246.819 7.17455 246.424 7.17455 245.944C7.17455 245.571 7.06255 245.267 6.83855 245.032C6.62521 244.797 6.35321 244.616 6.02255 244.488C5.70255 244.36 5.25455 244.221 4.67855 244.072C3.95321 243.88 3.36121 243.688 2.90255 243.496C2.45455 243.293 2.07055 242.984 1.75055 242.568C1.43055 242.152 1.27055 241.597 1.27055 240.904C1.27055 240.264 1.43055 239.704 1.75055 239.224C2.07055 238.744 2.51855 238.376 3.09455 238.12C3.67055 237.864 4.33721 237.736 5.09455 237.736C6.17188 237.736 7.05188 238.008 7.73455 238.552C8.42788 239.085 8.81188 239.821 8.88655 240.76H6.87055C6.83855 240.355 6.64655 240.008 6.29455 239.72C5.94255 239.432 5.47855 239.288 4.90255 239.288C4.37988 239.288 3.95321 239.421 3.62255 239.688C3.29188 239.955 3.12655 240.339 3.12655 240.84C3.12655 241.181 3.22788 241.464 3.43055 241.688C3.64388 241.901 3.91055 242.072 4.23055 242.2C4.55055 242.328 4.98788 242.467 5.54255 242.616C6.27855 242.819 6.87588 243.021 7.33455 243.224C7.80388 243.427 8.19855 243.741 8.51855 244.168C8.84921 244.584 9.01455 245.144 9.01455 245.848C9.01455 246.413 8.85988 246.947 8.55055 247.448C8.25188 247.949 7.80921 248.355 7.22255 248.664C6.64655 248.963 5.96388 249.112 5.17455 249.112ZM19.2468 244.376C19.2468 244.707 19.2255 245.005 19.1828 245.272H12.4468C12.5001 245.976 12.7615 246.541 13.2308 246.968C13.7001 247.395 14.2761 247.608 14.9588 247.608C15.9401 247.608 16.6335 247.197 17.0388 246.376H19.0068C18.7401 247.187 18.2548 247.853 17.5508 248.376C16.8575 248.888 15.9935 249.144 14.9588 249.144C14.1161 249.144 13.3588 248.957 12.6868 248.584C12.0255 248.2 11.5028 247.667 11.1188 246.984C10.7455 246.291 10.5588 245.491 10.5588 244.584C10.5588 243.677 10.7401 242.883 11.1028 242.2C11.4761 241.507 11.9935 240.973 12.6548 240.6C13.3268 240.227 14.0948 240.04 14.9588 240.04C15.7908 240.04 16.5321 240.221 17.1828 240.584C17.8335 240.947 18.3401 241.459 18.7028 242.12C19.0655 242.771 19.2468 243.523 19.2468 244.376ZM17.3428 243.8C17.3321 243.128 17.0921 242.589 16.6228 242.184C16.1535 241.779 15.5721 241.576 14.8788 241.576C14.2495 241.576 13.7108 241.779 13.2628 242.184C12.8148 242.579 12.5481 243.117 12.4628 243.8H17.3428ZM23.1698 241.672V246.552C23.1698 246.883 23.2445 247.123 23.3938 247.272C23.5538 247.411 23.8205 247.48 24.1938 247.48H25.3138V249H23.8738C23.0525 249 22.4231 248.808 21.9858 248.424C21.5485 248.04 21.3298 247.416 21.3298 246.552V241.672H20.2898V240.184H21.3298V237.992H23.1698V240.184H25.3138V241.672H23.1698ZM32.9592 237.88V244.968C32.9592 245.811 33.1778 246.445 33.6152 246.872C34.0632 247.299 34.6818 247.512 35.4712 247.512C36.2712 247.512 36.8898 247.299 37.3272 246.872C37.7752 246.445 37.9992 245.811 37.9992 244.968V237.88H39.8232V244.936C39.8232 245.843 39.6258 246.611 39.2312 247.24C38.8365 247.869 38.3085 248.339 37.6472 248.648C36.9858 248.957 36.2552 249.112 35.4552 249.112C34.6552 249.112 33.9245 248.957 33.2632 248.648C32.6125 248.339 32.0952 247.869 31.7112 247.24C31.3272 246.611 31.1352 245.843 31.1352 244.936V237.88H32.9592ZM44.022 241.48C44.3314 241.075 44.7527 240.733 45.286 240.456C45.8194 240.179 46.422 240.04 47.094 240.04C47.862 240.04 48.5607 240.232 49.19 240.616C49.83 240.989 50.3314 241.517 50.694 242.2C51.0567 242.883 51.238 243.667 51.238 244.552C51.238 245.437 51.0567 246.232 50.694 246.936C50.3314 247.629 49.83 248.173 49.19 248.568C48.5607 248.952 47.862 249.144 47.094 249.144C46.422 249.144 45.8247 249.011 45.302 248.744C44.7794 248.467 44.3527 248.125 44.022 247.72V253.192H42.198V240.184H44.022V241.48ZM49.382 244.552C49.382 243.944 49.254 243.421 48.998 242.984C48.7527 242.536 48.422 242.2 48.006 241.976C47.6007 241.741 47.1634 241.624 46.694 241.624C46.2354 241.624 45.798 241.741 45.382 241.976C44.9767 242.211 44.646 242.552 44.39 243C44.1447 243.448 44.022 243.976 44.022 244.584C44.022 245.192 44.1447 245.725 44.39 246.184C44.646 246.632 44.9767 246.973 45.382 247.208C45.798 247.443 46.2354 247.56 46.694 247.56C47.1634 247.56 47.6007 247.443 48.006 247.208C48.422 246.963 48.7527 246.611 48.998 246.152C49.254 245.693 49.382 245.16 49.382 244.552ZM59.006 237.88V244.968C59.006 245.811 59.2247 246.445 59.662 246.872C60.11 247.299 60.7287 247.512 61.518 247.512C62.318 247.512 62.9367 247.299 63.374 246.872C63.822 246.445 64.046 245.811 64.046 244.968V237.88H65.87V244.936C65.87 245.843 65.6727 246.611 65.278 247.24C64.8834 247.869 64.3554 248.339 63.694 248.648C63.0327 248.957 62.302 249.112 61.502 249.112C60.702 249.112 59.9714 248.957 59.31 248.648C58.6594 248.339 58.142 247.869 57.758 247.24C57.374 246.611 57.182 245.843 57.182 244.936V237.88H59.006ZM74.0209 249L71.4609 244.552H70.0689V249H68.2449V237.88H72.0849C72.9383 237.88 73.6583 238.029 74.2449 238.328C74.8423 238.627 75.2849 239.027 75.5729 239.528C75.8716 240.029 76.0209 240.589 76.0209 241.208C76.0209 241.933 75.8076 242.595 75.3809 243.192C74.9649 243.779 74.3196 244.179 73.4449 244.392L76.1969 249H74.0209ZM70.0689 243.096H72.0849C72.7676 243.096 73.2796 242.925 73.6209 242.584C73.9729 242.243 74.1489 241.784 74.1489 241.208C74.1489 240.632 73.9783 240.184 73.6369 239.864C73.2956 239.533 72.7783 239.368 72.0849 239.368H70.0689V243.096ZM80.1783 247.528H83.9383V249H78.3543V237.88H80.1783V247.528ZM96.1639 237.88V239.368H91.4439V242.648H95.1239V244.136H91.4439V249H89.6199V237.88H96.1639ZM101.678 249.144C100.846 249.144 100.094 248.957 99.4223 248.584C98.7503 248.2 98.2223 247.667 97.8383 246.984C97.4543 246.291 97.2623 245.491 97.2623 244.584C97.2623 243.688 97.4596 242.893 97.8543 242.2C98.249 241.507 98.7876 240.973 99.4703 240.6C100.153 240.227 100.916 240.04 101.758 240.04C102.601 240.04 103.364 240.227 104.046 240.6C104.729 240.973 105.268 241.507 105.662 242.2C106.057 242.893 106.254 243.688 106.254 244.584C106.254 245.48 106.052 246.275 105.646 246.968C105.241 247.661 104.686 248.2 103.982 248.584C103.289 248.957 102.521 249.144 101.678 249.144ZM101.678 247.56C102.148 247.56 102.585 247.448 102.99 247.224C103.406 247 103.742 246.664 103.998 246.216C104.254 245.768 104.382 245.224 104.382 244.584C104.382 243.944 104.26 243.405 104.014 242.968C103.769 242.52 103.444 242.184 103.038 241.96C102.633 241.736 102.196 241.624 101.726 241.624C101.257 241.624 100.82 241.736 100.414 241.96C100.02 242.184 99.705 242.52 99.4703 242.968C99.2356 243.405 99.1183 243.944 99.1183 244.584C99.1183 245.533 99.3583 246.269 99.8383 246.792C100.329 247.304 100.942 247.56 101.678 247.56ZM109.881 241.464C110.148 241.016 110.5 240.669 110.937 240.424C111.385 240.168 111.913 240.04 112.521 240.04V241.928H112.057C111.343 241.928 110.799 242.109 110.425 242.472C110.063 242.835 109.881 243.464 109.881 244.36V249H108.057V240.184H109.881V241.464ZM132.834 237.88L129.538 249H127.474L125.138 240.584L122.658 249L120.61 249.016L117.458 237.88H119.394L121.698 246.936L124.194 237.88H126.242L128.562 246.888L130.882 237.88H132.834ZM142.419 244.376C142.419 244.707 142.397 245.005 142.355 245.272H135.619C135.672 245.976 135.933 246.541 136.403 246.968C136.872 247.395 137.448 247.608 138.131 247.608C139.112 247.608 139.805 247.197 140.211 246.376H142.179C141.912 247.187 141.427 247.853 140.723 248.376C140.029 248.888 139.165 249.144 138.131 249.144C137.288 249.144 136.531 248.957 135.859 248.584C135.197 248.2 134.675 247.667 134.291 246.984C133.917 246.291 133.731 245.491 133.731 244.584C133.731 243.677 133.912 242.883 134.275 242.2C134.648 241.507 135.165 240.973 135.827 240.6C136.499 240.227 137.267 240.04 138.131 240.04C138.963 240.04 139.704 240.221 140.355 240.584C141.005 240.947 141.512 241.459 141.875 242.12C142.237 242.771 142.419 243.523 142.419 244.376ZM140.515 243.8C140.504 243.128 140.264 242.589 139.795 242.184C139.325 241.779 138.744 241.576 138.051 241.576C137.421 241.576 136.883 241.779 136.435 242.184C135.987 242.579 135.72 243.117 135.635 243.8H140.515ZM146.038 241.496C146.347 241.069 146.768 240.723 147.302 240.456C147.846 240.179 148.448 240.04 149.11 240.04C149.888 240.04 150.592 240.227 151.222 240.6C151.851 240.973 152.347 241.507 152.71 242.2C153.072 242.883 153.254 243.667 153.254 244.552C153.254 245.437 153.072 246.232 152.71 246.936C152.347 247.629 151.846 248.173 151.206 248.568C150.576 248.952 149.878 249.144 149.11 249.144C148.427 249.144 147.819 249.011 147.286 248.744C146.763 248.477 146.347 248.136 146.038 247.72V249H144.214V237.16H146.038V241.496ZM151.398 244.552C151.398 243.944 151.27 243.421 151.014 242.984C150.768 242.536 150.438 242.2 150.022 241.976C149.616 241.741 149.179 241.624 148.71 241.624C148.251 241.624 147.814 241.741 147.398 241.976C146.992 242.211 146.662 242.552 146.406 243C146.16 243.448 146.038 243.976 146.038 244.584C146.038 245.192 146.16 245.725 146.406 246.184C146.662 246.632 146.992 246.973 147.398 247.208C147.814 247.443 148.251 247.56 148.71 247.56C149.179 247.56 149.616 247.443 150.022 247.208C150.438 246.963 150.768 246.611 151.014 246.152C151.27 245.693 151.398 245.16 151.398 244.552ZM159.617 240.04C160.289 240.04 160.887 240.184 161.409 240.472C161.943 240.76 162.359 241.187 162.657 241.752C162.967 242.317 163.121 243 163.121 243.8V249H161.313V244.072C161.313 243.283 161.116 242.68 160.721 242.264C160.327 241.837 159.788 241.624 159.105 241.624C158.423 241.624 157.879 241.837 157.473 242.264C157.079 242.68 156.881 243.283 156.881 244.072V249H155.057V237.16H156.881V241.208C157.191 240.835 157.58 240.547 158.049 240.344C158.529 240.141 159.052 240.04 159.617 240.04ZM169.272 249.144C168.44 249.144 167.688 248.957 167.016 248.584C166.344 248.2 165.816 247.667 165.432 246.984C165.048 246.291 164.856 245.491 164.856 244.584C164.856 243.688 165.053 242.893 165.448 242.2C165.843 241.507 166.381 240.973 167.064 240.6C167.747 240.227 168.509 240.04 169.352 240.04C170.195 240.04 170.957 240.227 171.64 240.6C172.323 240.973 172.861 241.507 173.256 242.2C173.651 242.893 173.848 243.688 173.848 244.584C173.848 245.48 173.645 246.275 173.24 246.968C172.835 247.661 172.28 248.2 171.576 248.584C170.883 248.957 170.115 249.144 169.272 249.144ZM169.272 247.56C169.741 247.56 170.179 247.448 170.584 247.224C171 247 171.336 246.664 171.592 246.216C171.848 245.768 171.976 245.224 171.976 244.584C171.976 243.944 171.853 243.405 171.608 242.968C171.363 242.52 171.037 242.184 170.632 241.96C170.227 241.736 169.789 241.624 169.32 241.624C168.851 241.624 168.413 241.736 168.008 241.96C167.613 242.184 167.299 242.52 167.064 242.968C166.829 243.405 166.712 243.944 166.712 244.584C166.712 245.533 166.952 246.269 167.432 246.792C167.923 247.304 168.536 247.56 169.272 247.56ZM179.475 249.144C178.643 249.144 177.891 248.957 177.219 248.584C176.547 248.2 176.019 247.667 175.635 246.984C175.251 246.291 175.059 245.491 175.059 244.584C175.059 243.688 175.257 242.893 175.651 242.2C176.046 241.507 176.585 240.973 177.267 240.6C177.95 240.227 178.713 240.04 179.555 240.04C180.398 240.04 181.161 240.227 181.843 240.6C182.526 240.973 183.065 241.507 183.459 242.2C183.854 242.893 184.051 243.688 184.051 244.584C184.051 245.48 183.849 246.275 183.443 246.968C183.038 247.661 182.483 248.2 181.779 248.584C181.086 248.957 180.318 249.144 179.475 249.144ZM179.475 247.56C179.945 247.56 180.382 247.448 180.787 247.224C181.203 247 181.539 246.664 181.795 246.216C182.051 245.768 182.179 245.224 182.179 244.584C182.179 243.944 182.057 243.405 181.811 242.968C181.566 242.52 181.241 242.184 180.835 241.96C180.43 241.736 179.993 241.624 179.523 241.624C179.054 241.624 178.617 241.736 178.211 241.96C177.817 242.184 177.502 242.52 177.267 242.968C177.033 243.405 176.915 243.944 176.915 244.584C176.915 245.533 177.155 246.269 177.635 246.792C178.126 247.304 178.739 247.56 179.475 247.56ZM189.342 244.6L193.406 249H190.942L187.678 245.208V249H185.854V237.16H187.678V244.04L190.878 240.184H193.406L189.342 244.6ZM197.914 249.144C197.22 249.144 196.596 249.021 196.042 248.776C195.498 248.52 195.066 248.179 194.746 247.752C194.426 247.315 194.255 246.829 194.234 246.296H196.122C196.154 246.669 196.33 246.984 196.65 247.24C196.98 247.485 197.391 247.608 197.882 247.608C198.394 247.608 198.788 247.512 199.066 247.32C199.354 247.117 199.498 246.861 199.498 246.552C199.498 246.221 199.338 245.976 199.018 245.816C198.708 245.656 198.212 245.48 197.53 245.288C196.868 245.107 196.33 244.931 195.914 244.76C195.498 244.589 195.135 244.328 194.826 243.976C194.527 243.624 194.378 243.16 194.378 242.584C194.378 242.115 194.516 241.688 194.794 241.304C195.071 240.909 195.466 240.6 195.978 240.376C196.5 240.152 197.098 240.04 197.77 240.04C198.772 240.04 199.578 240.296 200.186 240.808C200.804 241.309 201.135 241.997 201.178 242.872H199.354C199.322 242.477 199.162 242.163 198.874 241.928C198.586 241.693 198.196 241.576 197.706 241.576C197.226 241.576 196.858 241.667 196.602 241.848C196.346 242.029 196.218 242.269 196.218 242.568C196.218 242.803 196.303 243 196.474 243.16C196.644 243.32 196.852 243.448 197.098 243.544C197.343 243.629 197.706 243.741 198.186 243.88C198.826 244.051 199.348 244.227 199.754 244.408C200.17 244.579 200.527 244.835 200.826 245.176C201.124 245.517 201.279 245.971 201.29 246.536C201.29 247.037 201.151 247.485 200.874 247.88C200.596 248.275 200.202 248.584 199.69 248.808C199.188 249.032 198.596 249.144 197.914 249.144ZM219.129 237.88V249H217.305V241.384L213.913 249H212.649L209.241 241.384V249H207.417V237.88H209.385L213.289 246.6L217.177 237.88H219.129ZM225.35 249.144C224.518 249.144 223.766 248.957 223.094 248.584C222.422 248.2 221.894 247.667 221.51 246.984C221.126 246.291 220.934 245.491 220.934 244.584C220.934 243.688 221.132 242.893 221.526 242.2C221.921 241.507 222.46 240.973 223.142 240.6C223.825 240.227 224.588 240.04 225.43 240.04C226.273 240.04 227.036 240.227 227.718 240.6C228.401 240.973 228.94 241.507 229.334 242.2C229.729 242.893 229.926 243.688 229.926 244.584C229.926 245.48 229.724 246.275 229.318 246.968C228.913 247.661 228.358 248.2 227.654 248.584C226.961 248.957 226.193 249.144 225.35 249.144ZM225.35 247.56C225.82 247.56 226.257 247.448 226.662 247.224C227.078 247 227.414 246.664 227.67 246.216C227.926 245.768 228.054 245.224 228.054 244.584C228.054 243.944 227.932 243.405 227.686 242.968C227.441 242.52 227.116 242.184 226.71 241.96C226.305 241.736 225.868 241.624 225.398 241.624C224.929 241.624 224.492 241.736 224.086 241.96C223.692 242.184 223.377 242.52 223.142 242.968C222.908 243.405 222.79 243.944 222.79 244.584C222.79 245.533 223.03 246.269 223.51 246.792C224.001 247.304 224.614 247.56 225.35 247.56ZM236.177 240.04C236.871 240.04 237.489 240.184 238.033 240.472C238.588 240.76 239.02 241.187 239.329 241.752C239.639 242.317 239.793 243 239.793 243.8V249H237.985V244.072C237.985 243.283 237.788 242.68 237.393 242.264C236.999 241.837 236.46 241.624 235.777 241.624C235.095 241.624 234.551 241.837 234.145 242.264C233.751 242.68 233.553 243.283 233.553 244.072V249H231.729V240.184H233.553V241.192C233.852 240.829 234.231 240.547 234.689 240.344C235.159 240.141 235.655 240.04 236.177 240.04ZM243.048 239.016C242.717 239.016 242.44 238.904 242.216 238.68C241.992 238.456 241.88 238.179 241.88 237.848C241.88 237.517 241.992 237.24 242.216 237.016C242.44 236.792 242.717 236.68 243.048 236.68C243.368 236.68 243.64 236.792 243.864 237.016C244.088 237.24 244.2 237.517 244.2 237.848C244.2 238.179 244.088 238.456 243.864 238.68C243.64 238.904 243.368 239.016 243.048 239.016ZM243.944 240.184V249H242.12V240.184H243.944ZM248.467 241.672V246.552C248.467 246.883 248.541 247.123 248.691 247.272C248.851 247.411 249.117 247.48 249.491 247.48H250.611V249H249.171C248.349 249 247.72 248.808 247.283 248.424C246.845 248.04 246.627 247.416 246.627 246.552V241.672H245.587V240.184H246.627V237.992H248.467V240.184H250.611V241.672H248.467ZM256.116 249.144C255.284 249.144 254.532 248.957 253.86 248.584C253.188 248.2 252.66 247.667 252.276 246.984C251.892 246.291 251.7 245.491 251.7 244.584C251.7 243.688 251.897 242.893 252.292 242.2C252.686 241.507 253.225 240.973 253.908 240.6C254.59 240.227 255.353 240.04 256.196 240.04C257.038 240.04 257.801 240.227 258.484 240.6C259.166 240.973 259.705 241.507 260.1 242.2C260.494 242.893 260.692 243.688 260.692 244.584C260.692 245.48 260.489 246.275 260.084 246.968C259.678 247.661 259.124 248.2 258.42 248.584C257.726 248.957 256.958 249.144 256.116 249.144ZM256.116 247.56C256.585 247.56 257.022 247.448 257.428 247.224C257.844 247 258.18 246.664 258.436 246.216C258.692 245.768 258.82 245.224 258.82 244.584C258.82 243.944 258.697 243.405 258.452 242.968C258.206 242.52 257.881 242.184 257.476 241.96C257.07 241.736 256.633 241.624 256.164 241.624C255.694 241.624 255.257 241.736 254.852 241.96C254.457 242.184 254.142 242.52 253.908 242.968C253.673 243.405 253.556 243.944 253.556 244.584C253.556 245.533 253.796 246.269 254.276 246.792C254.766 247.304 255.38 247.56 256.116 247.56ZM264.319 241.464C264.586 241.016 264.938 240.669 265.375 240.424C265.823 240.168 266.351 240.04 266.959 240.04V241.928H266.495C265.78 241.928 265.236 242.109 264.863 242.472C264.5 242.835 264.319 243.464 264.319 244.36V249H262.495V240.184H264.319V241.464ZM269.564 239.016C269.233 239.016 268.956 238.904 268.732 238.68C268.508 238.456 268.396 238.179 268.396 237.848C268.396 237.517 268.508 237.24 268.732 237.016C268.956 236.792 269.233 236.68 269.564 236.68C269.884 236.68 270.156 236.792 270.38 237.016C270.604 237.24 270.716 237.517 270.716 237.848C270.716 238.179 270.604 238.456 270.38 238.68C270.156 238.904 269.884 239.016 269.564 239.016ZM270.46 240.184V249H268.636V240.184H270.46ZM277.302 240.04C277.996 240.04 278.614 240.184 279.158 240.472C279.713 240.76 280.145 241.187 280.454 241.752C280.764 242.317 280.918 243 280.918 243.8V249H279.11V244.072C279.11 243.283 278.913 242.68 278.518 242.264C278.124 241.837 277.585 241.624 276.902 241.624C276.22 241.624 275.676 241.837 275.27 242.264C274.876 242.68 274.678 243.283 274.678 244.072V249H272.854V240.184H274.678V241.192C274.977 240.829 275.356 240.547 275.814 240.344C276.284 240.141 276.78 240.04 277.302 240.04ZM286.797 240.04C287.48 240.04 288.082 240.179 288.605 240.456C289.138 240.723 289.554 241.059 289.853 241.464V240.184H291.693V249.144C291.693 249.955 291.522 250.675 291.181 251.304C290.84 251.944 290.344 252.445 289.693 252.808C289.053 253.171 288.285 253.352 287.389 253.352C286.194 253.352 285.202 253.069 284.413 252.504C283.624 251.949 283.176 251.192 283.069 250.232H284.877C285.016 250.691 285.309 251.059 285.757 251.336C286.216 251.624 286.76 251.768 287.389 251.768C288.125 251.768 288.717 251.544 289.165 251.096C289.624 250.648 289.853 249.997 289.853 249.144V247.672C289.544 248.088 289.122 248.44 288.589 248.728C288.066 249.005 287.469 249.144 286.797 249.144C286.029 249.144 285.325 248.952 284.685 248.568C284.056 248.173 283.554 247.629 283.181 246.936C282.818 246.232 282.637 245.437 282.637 244.552C282.637 243.667 282.818 242.883 283.181 242.2C283.554 241.517 284.056 240.989 284.685 240.616C285.325 240.232 286.029 240.04 286.797 240.04ZM289.853 244.584C289.853 243.976 289.725 243.448 289.469 243C289.224 242.552 288.898 242.211 288.493 241.976C288.088 241.741 287.65 241.624 287.181 241.624C286.712 241.624 286.274 241.741 285.869 241.976C285.464 242.2 285.133 242.536 284.877 242.984C284.632 243.421 284.509 243.944 284.509 244.552C284.509 245.16 284.632 245.693 284.877 246.152C285.133 246.611 285.464 246.963 285.869 247.208C286.285 247.443 286.722 247.56 287.181 247.56C287.65 247.56 288.088 247.443 288.493 247.208C288.898 246.973 289.224 246.632 289.469 246.184C289.725 245.725 289.853 245.192 289.853 244.584Z" fill="#6E7191"/>
<defs>
<clipPath id="clip0_4892_112481">
<rect width="293.621" height="191" fill="white"/>
</clipPath>
</defs>
</svg>
