<svg width="63" height="63" viewBox="0 0 63 63" fill="none" xmlns="http://www.w3.org/2000/svg">
<rect x="5" y="5" width="53" height="53" rx="26.5" fill="#FEFBE2"/>
<path d="M39.0941 36.7877L37.6697 35.3633V29.8424C37.6697 26.4527 35.8589 23.6149 32.701 22.8641V22.1133C32.701 21.1968 31.9612 20.457 31.0447 20.457C30.1282 20.457 29.3885 21.1968 29.3885 22.1133V22.8641C26.2195 23.6149 24.4197 26.4416 24.4197 29.8424V35.3633L22.9953 36.7877C22.2997 37.4833 22.7855 38.6758 23.7682 38.6758H38.3101C39.3039 38.6758 39.7897 37.4833 39.0941 36.7877ZM35.4614 36.4674H26.628V29.8424C26.628 27.1041 28.2953 24.8737 31.0447 24.8737C33.7941 24.8737 35.4614 27.1041 35.4614 29.8424V36.4674ZM31.0447 41.9883C32.2593 41.9883 33.253 40.9945 33.253 39.7799H28.8364C28.8364 40.9945 29.8191 41.9883 31.0447 41.9883Z" fill="#F4B740"/>
<rect x="5" y="5" width="53" height="53" rx="26.5" stroke="#FEFBF2" stroke-width="8.83333"/>
</svg>
