<svg width="89" height="89" viewBox="0 0 89 89" fill="none" xmlns="http://www.w3.org/2000/svg">
<circle cx="1.23611" cy="1.23611" r="1.23611" fill="#BFACE0"/>
<circle cx="13.5955" cy="1.23611" r="1.23611" fill="#BFACE0"/>
<circle cx="25.9588" cy="1.23611" r="1.23611" fill="#BFACE0"/>
<circle cx="38.3181" cy="1.23611" r="1.23611" fill="#BFACE0"/>
<circle cx="50.6814" cy="1.23611" r="1.23611" fill="#BFACE0"/>
<circle cx="63.0408" cy="1.23611" r="1.23611" fill="#BFACE0"/>
<circle cx="75.4041" cy="1.23611" r="1.23611" fill="#BFACE0"/>
<circle cx="87.7635" cy="1.23611" r="1.23611" fill="#BFACE0"/>
<circle cx="1.23611" cy="13.5994" r="1.23611" fill="#BFACE0"/>
<circle cx="13.5955" cy="13.5994" r="1.23611" fill="#BFACE0"/>
<circle cx="25.9588" cy="13.5994" r="1.23611" fill="#BFACE0"/>
<circle cx="38.3181" cy="13.5994" r="1.23611" fill="#BFACE0"/>
<circle cx="50.6814" cy="13.5994" r="1.23611" fill="#BFACE0"/>
<circle cx="63.0408" cy="13.5994" r="1.23611" fill="#BFACE0"/>
<circle cx="75.4041" cy="13.5994" r="1.23611" fill="#BFACE0"/>
<circle cx="87.7635" cy="13.5994" r="1.23611" fill="#BFACE0"/>
<circle cx="1.23611" cy="25.9568" r="1.23611" fill="#BFACE0"/>
<circle cx="13.5955" cy="25.9568" r="1.23611" fill="#BFACE0"/>
<circle cx="25.9588" cy="25.9568" r="1.23611" fill="#BFACE0"/>
<circle cx="38.3181" cy="25.9568" r="1.23611" fill="#BFACE0"/>
<circle cx="50.6814" cy="25.9568" r="1.23611" fill="#BFACE0"/>
<circle cx="63.0408" cy="25.9568" r="1.23611" fill="#BFACE0"/>
<circle cx="75.4041" cy="25.9568" r="1.23611" fill="#BFACE0"/>
<circle cx="87.7635" cy="25.9568" r="1.23611" fill="#BFACE0"/>
<circle cx="1.23611" cy="38.3201" r="1.23611" fill="#BFACE0"/>
<circle cx="13.5955" cy="38.3181" r="1.23611" fill="#BFACE0"/>
<circle cx="25.9588" cy="38.3181" r="1.23611" fill="#BFACE0"/>
<circle cx="38.3181" cy="38.3181" r="1.23611" fill="#BFACE0"/>
<circle cx="50.6814" cy="38.3181" r="1.23611" fill="#BFACE0"/>
<circle cx="63.0408" cy="38.3181" r="1.23611" fill="#BFACE0"/>
<circle cx="75.4041" cy="38.3181" r="1.23611" fill="#BFACE0"/>
<circle cx="87.7635" cy="38.3181" r="1.23611" fill="#BFACE0"/>
<circle cx="1.23611" cy="50.6775" r="1.23611" fill="#BFACE0"/>
<circle cx="13.5955" cy="50.6775" r="1.23611" fill="#BFACE0"/>
<circle cx="25.9588" cy="50.6775" r="1.23611" fill="#BFACE0"/>
<circle cx="38.3181" cy="50.6775" r="1.23611" fill="#BFACE0"/>
<circle cx="50.6814" cy="50.6775" r="1.23611" fill="#BFACE0"/>
<circle cx="63.0408" cy="50.6775" r="1.23611" fill="#BFACE0"/>
<circle cx="75.4041" cy="50.6775" r="1.23611" fill="#BFACE0"/>
<circle cx="87.7635" cy="50.6775" r="1.23611" fill="#BFACE0"/>
<circle cx="1.23611" cy="63.0447" r="1.23611" fill="#BFACE0"/>
<circle cx="13.5955" cy="63.0447" r="1.23611" fill="#BFACE0"/>
<circle cx="25.9588" cy="63.0447" r="1.23611" fill="#BFACE0"/>
<circle cx="38.3181" cy="63.0447" r="1.23611" fill="#BFACE0"/>
<circle cx="50.6814" cy="63.0447" r="1.23611" fill="#BFACE0"/>
<circle cx="63.0408" cy="63.0447" r="1.23611" fill="#BFACE0"/>
<circle cx="75.4041" cy="63.0447" r="1.23611" fill="#BFACE0"/>
<circle cx="87.7635" cy="63.0447" r="1.23611" fill="#BFACE0"/>
<circle cx="1.23611" cy="75.4041" r="1.23611" fill="#BFACE0"/>
<circle cx="13.5955" cy="75.4041" r="1.23611" fill="#BFACE0"/>
<circle cx="25.9588" cy="75.4041" r="1.23611" fill="#BFACE0"/>
<circle cx="38.3181" cy="75.4041" r="1.23611" fill="#BFACE0"/>
<circle cx="50.6814" cy="75.4041" r="1.23611" fill="#BFACE0"/>
<circle cx="63.0408" cy="75.4041" r="1.23611" fill="#BFACE0"/>
<circle cx="75.4041" cy="75.4041" r="1.23611" fill="#BFACE0"/>
<circle cx="87.7635" cy="75.4041" r="1.23611" fill="#BFACE0"/>
<circle cx="1.23611" cy="87.7635" r="1.23611" fill="#BFACE0"/>
<circle cx="13.5955" cy="87.7635" r="1.23611" fill="#BFACE0"/>
<circle cx="25.9588" cy="87.7635" r="1.23611" fill="#BFACE0"/>
<circle cx="38.3181" cy="87.7635" r="1.23611" fill="#BFACE0"/>
<circle cx="50.6814" cy="87.7635" r="1.23611" fill="#BFACE0"/>
<circle cx="63.0408" cy="87.7635" r="1.23611" fill="#BFACE0"/>
<circle cx="75.4041" cy="87.7635" r="1.23611" fill="#BFACE0"/>
<circle cx="87.7635" cy="87.7635" r="1.23611" fill="#BFACE0"/>
</svg>
