<svg width="241" height="258" viewBox="0 0 241 258" fill="none" xmlns="http://www.w3.org/2000/svg">
<g style="mix-blend-mode:screen" opacity="0.5">
<path d="M100.342 221.956L160.293 220.676L135.27 176.189L59.393 214.351L100.342 221.956Z" fill="url(#paint0_linear_8932_161874)"/>
</g>
<path style="mix-blend-mode:screen" d="M42.9572 222.62L153.048 203.4L149.253 211.184L157.589 221.006L42.9572 222.62Z" fill="url(#paint1_linear_8932_161874)"/>
<g style="mix-blend-mode:screen">
<path d="M42.9586 222.62L130.104 188.531L121.636 168.412L107.52 163.403L42.9586 222.62Z" fill="url(#paint2_linear_8932_161874)"/>
</g>
<path d="M42.955 222.619L105.636 211.794L105.361 191.26L42.955 222.619Z" fill="url(#paint3_linear_8932_161874)"/>
<g style="mix-blend-mode:multiply">
<path d="M42.955 222.619L105.636 211.794L105.361 191.26L42.955 222.619Z" fill="url(#paint4_linear_8932_161874)"/>
</g>
<path d="M42.9577 222.617L105.638 211.792L114.99 214.106L118.943 221.508L42.9577 222.617Z" fill="url(#paint5_linear_8932_161874)"/>
<path d="M42.9555 222.617L96.974 201.562L105.361 191.259L42.9555 222.617Z" fill="url(#paint6_linear_8932_161874)"/>
<g style="mix-blend-mode:multiply">
<path d="M42.9555 222.617L96.974 201.562L105.361 191.259L42.9555 222.617Z" fill="url(#paint7_linear_8932_161874)"/>
</g>
<path d="M42.9557 222.618L96.9742 201.563L92.2656 190.705L84.6415 184.417L42.9557 222.618Z" fill="url(#paint8_linear_8932_161874)"/>
<path d="M84.6436 184.415L92.2676 190.704L96.9762 201.562L105.364 191.258L105.638 211.792L114.99 214.106L118.943 221.508L114.748 214.21L105.464 211.812L105.105 192.029L96.9762 201.562L92.1487 191.064L84.6436 184.415Z" fill="#645CAA"/>
<path d="M107.451 176.404C129.898 185.854 178.972 191.506 195.69 138.517C207.244 101.893 204.166 75.537 193.331 60.359M193.331 60.359C184.57 48.0872 170.739 43.1224 155.47 45.9453C121.317 52.2597 120.739 91.4642 144.653 96.0262C168.567 100.588 190.853 80.393 193.331 60.359ZM193.331 60.359C193.509 41.959 185.911 4.16638 154.089 0.195279" stroke="#645CAA" stroke-width="0.784736" stroke-dasharray="6.28 6.28"/>
<defs>
<linearGradient id="paint0_linear_8932_161874" x1="148.916" y1="224.437" x2="65.1164" y2="201" gradientUnits="userSpaceOnUse">
<stop stop-color="#2E285C"/>
<stop offset="1" stop-color="#A084CA"/>
</linearGradient>
<linearGradient id="paint1_linear_8932_161874" x1="71.3254" y1="220.736" x2="142.34" y2="214.965" gradientUnits="userSpaceOnUse">
<stop stop-color="#43E8E1"/>
<stop offset="0.09" stop-color="#36BDB7"/>
<stop offset="0.22" stop-color="#288B87"/>
<stop offset="0.34" stop-color="#1C605D"/>
<stop offset="0.47" stop-color="#123E3C"/>
<stop offset="0.6" stop-color="#0A2321"/>
<stop offset="0.73" stop-color="#040F0F"/>
<stop offset="0.86" stop-color="#010404"/>
<stop offset="1"/>
</linearGradient>
<linearGradient id="paint2_linear_8932_161874" x1="120.363" y1="197.032" x2="50.5039" y2="166.998" gradientUnits="userSpaceOnUse">
<stop stop-color="#2E285C"/>
<stop offset="1" stop-color="#A084CA"/>
</linearGradient>
<linearGradient id="paint3_linear_8932_161874" x1="74.5203" y1="189.574" x2="74.167" y2="224.267" gradientUnits="userSpaceOnUse">
<stop stop-color="#D4D1D8"/>
<stop offset="1" stop-color="white"/>
</linearGradient>
<linearGradient id="paint4_linear_8932_161874" x1="19.2315" y1="219.732" x2="88.7917" y2="251.171" gradientUnits="userSpaceOnUse">
<stop stop-color="#F6DBFA"/>
<stop offset="1" stop-color="#A084CA"/>
</linearGradient>
<linearGradient id="paint5_linear_8932_161874" x1="110.197" y1="224.399" x2="62.7589" y2="197.803" gradientUnits="userSpaceOnUse">
<stop stop-color="#655BA6"/>
<stop offset="1" stop-color="#A084CA"/>
</linearGradient>
<linearGradient id="paint6_linear_8932_161874" x1="98.5688" y1="211.033" x2="73.9913" y2="207.732" gradientUnits="userSpaceOnUse">
<stop stop-color="#D4D1D8"/>
<stop offset="1" stop-color="white"/>
</linearGradient>
<linearGradient id="paint7_linear_8932_161874" x1="19.232" y1="219.731" x2="58.4516" y2="254.338" gradientUnits="userSpaceOnUse">
<stop stop-color="#F6DBFA"/>
<stop offset="1" stop-color="#A084CA"/>
</linearGradient>
<linearGradient id="paint8_linear_8932_161874" x1="90.9199" y1="206.762" x2="46.5965" y2="188.662" gradientUnits="userSpaceOnUse">
<stop stop-color="#655BA6"/>
<stop offset="1" stop-color="#A084CA"/>
</linearGradient>
</defs>
</svg>
