<svg width="54" height="54" viewBox="0 0 54 54" fill="none" xmlns="http://www.w3.org/2000/svg">
<path d="M44.8377 24.6406L44.781 24.6817C40.048 27.5973 33.7985 29.358 26.9901 29.358C20.1818 29.358 13.9499 27.5973 9.21878 24.6817L9.16016 24.6406" stroke="#FE6230" stroke-width="1.5" stroke-linecap="round" stroke-linejoin="round"/>
<path fill-rule="evenodd" clip-rule="evenodd" d="M9 28.3017C9 16.2795 13.5005 12.2715 27 12.2715C40.5015 12.2715 45 16.2795 45 28.3017C45 40.3238 40.5015 44.3318 27 44.3318C13.5005 44.3318 9 40.3238 9 28.3017Z" stroke="#FE6230" stroke-width="1.5" stroke-linecap="round" stroke-linejoin="round"/>
<path d="M33.3751 12.7043V11.4731C33.3751 9.00304 31.5714 7 29.3495 7H24.6496C22.4277 7 20.624 9.00304 20.624 11.4731V12.7043" stroke="#FE6230" stroke-width="1.5" stroke-linecap="round" stroke-linejoin="round"/>
</svg>
