<svg width="35" height="34" viewBox="0 0 35 34" fill="none" xmlns="http://www.w3.org/2000/svg">
<path fill-rule="evenodd" clip-rule="evenodd" d="M23.3031 18.9128C23.3031 15.7286 20.721 13.1465 17.5368 13.1465C14.3526 13.1465 11.7705 15.7286 11.7705 18.9128C11.7705 22.097 14.3526 24.6791 17.5368 24.6791C20.721 24.6791 23.3031 22.097 23.3031 18.9128Z" stroke="white" stroke-width="1.5" stroke-linecap="round" stroke-linejoin="round"/>
<path fill-rule="evenodd" clip-rule="evenodd" d="M17.5361 33.0329C32.2857 33.0329 34.0419 28.6136 34.0419 19.0378C34.0419 12.3259 33.1541 8.73445 27.5634 7.19059C27.0501 7.02848 26.4808 6.71971 26.0196 6.21217C25.2747 5.39585 24.7304 2.88901 22.9319 2.13059C21.1333 1.3741 13.9099 1.40884 12.1403 2.13059C10.3726 2.85427 9.79747 5.39585 9.05255 6.21217C8.59133 6.71971 8.02396 7.02848 7.50869 7.19059C1.91799 8.73445 1.03027 12.3259 1.03027 19.0378C1.03027 28.6136 2.78641 33.0329 17.5361 33.0329Z" stroke="white" stroke-width="1.5" stroke-linecap="round" stroke-linejoin="round"/>
<path d="M26.5412 12.4987H26.5577" stroke="white" stroke-width="1.5" stroke-linecap="round" stroke-linejoin="round"/>
</svg>
