<svg width="16" height="17" viewBox="0 0 16 17" fill="none" xmlns="http://www.w3.org/2000/svg">
<path fill-rule="evenodd" clip-rule="evenodd" d="M0 8.67188C0 8.40671 0.105345 8.1524 0.292861 7.9649C0.480376 7.77739 0.734701 7.67206 0.999888 7.67206H12.5846L8.29107 3.38083C8.10332 3.19309 7.99784 2.93846 7.99784 2.67296C7.99784 2.40745 8.10332 2.15282 8.29107 1.96509C8.47883 1.77735 8.73347 1.67188 8.99899 1.67188C9.26452 1.67188 9.51916 1.77735 9.70692 1.96509L15.7062 7.964C15.7994 8.05688 15.8732 8.16721 15.9236 8.28868C15.9741 8.41015 16 8.54036 16 8.67188C16 8.80339 15.9741 8.9336 15.9236 9.05507C15.8732 9.17654 15.7994 9.28687 15.7062 9.37975L9.70692 15.3787C9.51916 15.5664 9.26452 15.6719 8.99899 15.6719C8.73347 15.6719 8.47883 15.5664 8.29107 15.3787C8.10332 15.1909 7.99784 14.9363 7.99784 14.6708C7.99784 14.4053 8.10332 14.1507 8.29107 13.9629L12.5846 9.6717H0.999888C0.734701 9.6717 0.480376 9.56636 0.292861 9.37886C0.105345 9.19135 0 8.93704 0 8.67188Z" fill="white"/>
</svg>
