<svg width="100" height="100" viewBox="0 0 100 100" fill="none" xmlns="http://www.w3.org/2000/svg">
<circle cx="50" cy="50" r="50" fill="#F4EEFF"/>
<path fill-rule="evenodd" clip-rule="evenodd" d="M49.6373 72.5445C41.023 72.5445 33.6667 71.204 33.6667 65.8355C33.6667 60.467 40.9764 55.5111 49.6373 55.5111C58.2515 55.5111 65.6079 60.419 65.6079 65.7874C65.6079 71.1538 58.2982 72.5445 49.6373 72.5445Z" stroke="#3C347E" stroke-width="3" stroke-linecap="round" stroke-linejoin="round"/>
<path fill-rule="evenodd" clip-rule="evenodd" d="M49.6204 48.0718C55.2734 48.0718 59.8552 43.49 59.8552 37.837C59.8552 32.1839 55.2734 27.6 49.6204 27.6C43.9673 27.6 39.3834 32.1839 39.3834 37.837C39.3643 43.4709 43.9143 48.0527 49.5482 48.0718C49.5737 48.0718 49.597 48.0718 49.6204 48.0718Z" stroke="#3C347E" stroke-width="3" stroke-linecap="round" stroke-linejoin="round"/>
</svg>
