<svg width="12" height="12" viewBox="0 0 12 12" fill="none" xmlns="http://www.w3.org/2000/svg">
<circle cx="5.8" cy="5.90449" r="5.8" fill="#0BAB52"/>
<path d="M8.73587 3.80753L5.11829 7.4717C5.09397 7.49644 5.06506 7.51606 5.03324 7.52945C5.00141 7.54285 4.96728 7.54974 4.93282 7.54974C4.89835 7.54974 4.86423 7.54285 4.8324 7.52945C4.80057 7.51606 4.77167 7.49644 4.74734 7.4717L3.34838 6.05329C3.32405 6.02855 3.29515 6.00893 3.26332 5.99553C3.23149 5.98214 3.19737 5.97525 3.1629 5.97525C3.12844 5.97525 3.09431 5.98214 3.06249 5.99553C3.03066 6.00893 3.00175 6.02855 2.97743 6.05329C2.95301 6.07792 2.93364 6.1072 2.92042 6.13944C2.9072 6.17168 2.90039 6.20625 2.90039 6.24116C2.90039 6.27607 2.9072 6.31064 2.92042 6.34288C2.93364 6.37512 2.95301 6.4044 2.97743 6.42904L4.37692 7.84639C4.52455 7.99566 4.72462 8.07949 4.93321 8.07949C5.1418 8.07949 5.34187 7.99566 5.4895 7.84639L9.10682 4.18302C9.13119 4.15838 9.15054 4.12912 9.16373 4.09691C9.17693 4.06469 9.18372 4.03015 9.18372 3.99527C9.18372 3.96039 9.17693 3.92586 9.16373 3.89364C9.15054 3.86142 9.13119 3.83216 9.10682 3.80753C9.08249 3.7828 9.05359 3.76317 9.02176 3.74978C8.98993 3.73639 8.95581 3.72949 8.92134 3.72949C8.88688 3.72949 8.85275 3.73639 8.82092 3.74978C8.7891 3.76317 8.76019 3.7828 8.73587 3.80753Z" fill="white"/>
</svg>
