<svg width="21" height="20" viewBox="0 0 21 20" fill="none" xmlns="http://www.w3.org/2000/svg">
<g clip-path="url(#clip0_9918_160877)">
<path d="M18.1975 5.9326C18.2093 6.10464 18.2093 6.27749 18.2093 6.45116C18.2093 11.7566 14.0354 17.8742 6.40544 17.8742V17.871C4.15168 17.8742 1.94425 17.2497 0.046875 16.0715C0.374619 16.1098 0.704048 16.1286 1.03432 16.1294C2.90305 16.131 4.71785 15.5244 6.18638 14.4073C4.41117 14.3747 2.85418 13.2544 2.31075 11.6189C2.93254 11.7346 3.57286 11.711 4.18369 11.5504C2.24756 11.172 0.855703 9.52585 0.855703 7.61467C0.855703 7.59754 0.855703 7.58042 0.855703 7.56411C1.43283 7.87558 2.07821 8.04762 2.73875 8.06637C0.915522 6.88819 0.352713 4.54161 1.4539 2.70707C3.56022 5.21509 6.66831 6.73979 10.0039 6.90205C9.6694 5.5078 10.1269 4.04669 11.2036 3.06583C12.8744 1.5452 15.5022 1.62347 17.0735 3.24031C18.0028 3.06338 18.8934 2.73316 19.7081 2.26597C19.3981 3.19547 18.7502 3.98473 17.8841 4.48698C18.7072 4.39159 19.5101 4.17878 20.2676 3.85427C19.7107 4.66065 19.0097 5.3643 18.1975 5.9326Z" fill="#3C347E"/>
</g>
<defs>
<clipPath id="clip0_9918_160877">
<rect x="0.046875" y="0.140625" width="20.2207" height="19.5684" fill="white"/>
</clipPath>
</defs>
</svg>
