<svg width="27" height="30" viewBox="0 0 27 30" fill="none" xmlns="http://www.w3.org/2000/svg">
<g clip-path="url(#clip0_8932_161821)">
<path d="M18.2108 19.4477L13.8622 14.5859L9.51367 19.4477" stroke="#3C347E" stroke-width="1.6307" stroke-linecap="round" stroke-linejoin="round"/>
<path d="M13.8574 14.5859V25.5248" stroke="#3C347E" stroke-width="2.44605" stroke-linecap="round" stroke-linejoin="round"/>
<path d="M22.9798 22.3529C24.0402 21.7066 24.8778 20.6839 25.3605 19.4463C25.8432 18.2087 25.9436 16.8266 25.6457 15.5181C25.3478 14.2097 24.6687 13.0494 23.7155 12.2204C22.7622 11.3914 21.5892 10.9409 20.3816 10.94H19.0118C18.6827 9.517 18.0694 8.19595 17.218 7.07612C16.3665 5.9563 15.2991 5.06684 14.0959 4.47463C12.8927 3.88242 11.5851 3.60287 10.2714 3.65698C8.95765 3.7111 7.67199 4.09748 6.51105 4.78707C5.35011 5.47666 4.34411 6.45152 3.56867 7.63836C2.79322 8.82521 2.26853 10.1931 2.03402 11.6393C1.79952 13.0855 1.8613 14.5723 2.21474 15.988C2.56818 17.4036 3.20406 18.7113 4.07459 19.8126" stroke="#3C347E" stroke-width="2.44605" stroke-linecap="round" stroke-linejoin="round"/>
<path d="M18.2108 19.4477L13.8622 14.5859L9.51367 19.4477" stroke="#3C347E" stroke-width="2.44605" stroke-linecap="round" stroke-linejoin="round"/>
</g>
<defs>
<clipPath id="clip0_8932_161821">
<rect x="0.8125" width="26.0912" height="29.1703" fill="white"/>
</clipPath>
</defs>
</svg>
