<svg width="27" height="30" viewBox="0 0 27 30" fill="none" xmlns="http://www.w3.org/2000/svg">
<g clip-path="url(#clip0_8932_161813)">
<path d="M18.1586 25.6539V23.223C18.1586 21.9336 17.7004 20.697 16.8849 19.7853C16.0694 18.8735 14.9634 18.3613 13.81 18.3613H6.2001C5.0468 18.3613 3.94073 18.8735 3.12522 19.7853C2.30971 20.697 1.85156 21.9336 1.85156 23.223V25.6539" stroke="#3C347E" stroke-width="2.44605" stroke-linecap="round" stroke-linejoin="round"/>
<path d="M10.0087 13.4988C12.4103 13.4988 14.3572 11.3222 14.3572 8.63711C14.3572 5.95206 12.4103 3.77539 10.0087 3.77539C7.60706 3.77539 5.66016 5.95206 5.66016 8.63711C5.66016 11.3222 7.60706 13.4988 10.0087 13.4988Z" stroke="#3C347E" stroke-width="2.44605" stroke-linecap="round" stroke-linejoin="round"/>
<path d="M22.5098 9.85352V17.1461" stroke="#3C347E" stroke-width="2.44605" stroke-linecap="round" stroke-linejoin="round"/>
<path d="M25.7709 13.5H19.248" stroke="#3C347E" stroke-width="2.44605" stroke-linecap="round" stroke-linejoin="round"/>
</g>
<defs>
<clipPath id="clip0_8932_161813">
<rect x="0.628906" width="26.0912" height="29.1703" fill="white"/>
</clipPath>
</defs>
</svg>
