<svg width="44" height="44" viewBox="0 0 44 44" fill="none" xmlns="http://www.w3.org/2000/svg">
<rect width="44" height="44" rx="12" fill="#E8E8EC" fill-opacity="0.5"/>
<path d="M24.6663 15.333H19.333C16.6663 15.333 15.333 16.6663 15.333 19.333V27.9997C15.333 28.3663 15.633 28.6663 15.9997 28.6663H24.6663C27.333 28.6663 28.6663 27.333 28.6663 24.6663V19.333C28.6663 16.6663 27.333 15.333 24.6663 15.333Z" stroke="#645CAA" stroke-linecap="round" stroke-linejoin="round"/>
<path d="M22.6069 19.2268L19.1469 22.6868C19.0135 22.8201 18.8869 23.0801 18.8602 23.2668L18.6735 24.5868C18.6069 25.0668 18.9402 25.4001 19.4202 25.3334L20.7402 25.1468C20.9268 25.1201 21.1869 24.9934 21.3202 24.8601L24.7802 21.4001C25.3735 20.8068 25.6602 20.1134 24.7802 19.2334C23.9002 18.3468 23.2069 18.6268 22.6069 19.2268Z" stroke="#645CAA" stroke-miterlimit="10" stroke-linecap="round" stroke-linejoin="round"/>
<path d="M22.1133 19.7197C22.4066 20.7664 23.2266 21.5931 24.2799 21.8864" stroke="#645CAA" stroke-miterlimit="10" stroke-linecap="round" stroke-linejoin="round"/>
</svg>
